<svg width="775" height="867" viewBox="0 0 775 867" fill="none" xmlns="http://www.w3.org/2000/svg">
<g clip-path="url(#clip0_1_71)">
<path fill-rule="evenodd" clip-rule="evenodd" d="M374.852 728.857L488.83 718.357L472.33 747.36L504.44 765.47C505.69 766.18 506.47 767.5 506.48 768.93C506.49 771.14 504.71 772.94 502.5 772.96C465.851 773.18 438.872 773.2 421.565 773.04C401.97 772.85 385.784 772.48 373.005 771.93L374.852 728.857ZM54.3251 627.857L84.3251 699.857L46.522 713.751L7.11909 762.81C6.25409 763.89 4.89404 764.45 3.52204 764.28C1.32904 764.02 -0.234936 762.03 0.0290638 759.83L13.9811 643.966L54.3251 627.857Z" fill="#4F46E5"/>
<path fill-rule="evenodd" clip-rule="evenodd" d="M490.43 445.357L600.05 513.249C625.33 528.907 633.59 561.823 618.69 587.559L533.43 734.857L361.325 734.82L527.93 566.357L394.931 516.857L275.825 592.142L107.431 757.36L40.8252 597.547L201.931 537.857L291.931 481.857L331.431 434.857L490.43 445.357Z" fill="white"/>
<path d="M527.94 566.811L363.016 733.571L532.89 733.607L617.93 586.683C632.63 561.298 624.48 528.831 599.55 513.387L490.09 445.593L331.655 435.131L292.323 481.931L202.222 537.994L202.086 538.061L41.713 597.479L107.591 755.55L275.195 591.107L275.319 591.008L394.739 515.525L527.58 564.965L531.24 560.389C531.5 560.065 531.97 560.013 532.29 560.272C532.62 560.53 532.67 561.002 532.41 561.326L529.06 565.516L529.17 565.559L529.02 565.718L532.22 567.721C532.57 567.941 532.68 568.404 532.46 568.755C532.24 569.106 531.78 569.213 531.43 568.993L527.94 566.811ZM291.328 480.784L291.251 480.875L291.429 480.721L291.328 480.784ZM291.328 480.784L330.996 433.584L490.56 444.121L600.34 512.111C625.96 527.982 634.33 561.347 619.23 587.435L533.76 735.107L359.424 735.07L526.48 566.155L394.912 517.19L276.188 592.234L107.059 758.17L39.728 596.615L201.494 536.68L291.328 480.784ZM201.494 536.68L201.429 536.721L201.565 536.654L201.494 536.68Z" fill="#4F46E5"/>
<path fill-rule="evenodd" clip-rule="evenodd" d="M384.825 288.857L459.914 289.729L533.26 296.763L691.83 306.857L651.33 122.857L717.83 123.357C755.83 264.213 774.91 336.821 775.05 341.18C775.9 366.571 756.01 387.844 730.62 388.694L509.83 372.357L489.33 441.357L389.825 436.857L384.825 288.857Z" fill="white"/>
<path d="M490.37 442.157L384.073 433.046L384.578 288.099L385.334 288.108L460.486 288.983L533.81 296.015L691.38 306.046L650.89 122.101L718.9 122.612L719.05 123.162C757.18 264.474 776.15 336.698 776.3 341.155C777.17 366.96 756.95 388.58 731.06 389.443L510.87 373.15L490.37 442.157ZM385.578 431.669L489.28 440.558L509.78 371.565L510.38 371.61L731.09 387.945C756.07 387.108 775.64 366.182 774.8 341.205C774.66 336.95 755.53 264.144 717.75 124.103L652.76 123.615L693.27 307.669L692.28 307.606L533.69 297.51L460.405 290.479L386.073 289.616L385.578 431.669Z" fill="#4F46E5"/>
<path fill-rule="evenodd" clip-rule="evenodd" d="M441.825 443.357L490.48 444.669L493.08 434.169L441.825 432.357V443.357Z" fill="#4F46E5"/>
<path fill-rule="evenodd" clip-rule="evenodd" d="M191.325 204.857L121.008 440.442C116.428 455.789 124.71 472.027 139.823 477.33L169.825 487.857L321.825 386.357L321.931 288.857L251.825 316.357L290.825 204.857L263.825 139.857L235.325 153.857L191.325 204.857Z" fill="white"/>
<path d="M292.277 204.107H191.161L120.684 440.227C115.989 455.958 124.478 472.603 139.969 478.038L170.325 488.689L322.97 386.759L323.076 287.757L253.468 315.062L292.277 204.107ZM192.279 205.607H290.163L250.973 317.652L321.574 289.958L321.471 385.956L170.115 487.026L140.466 476.622C125.731 471.452 117.656 455.62 122.122 440.656L192.279 205.607Z" fill="#4F46E5"/>
<path fill-rule="evenodd" clip-rule="evenodd" d="M293.825 230.858L288.38 254.178L176.825 225.858L181.873 201.858L293.825 230.858Z" fill="white"/>
<path d="M294.521 230.261L288.473 254.518L175.919 226.455L181.967 202.198L294.521 230.261ZM292.703 231.353L183.06 204.016L177.737 225.363L287.381 252.7L292.703 231.353Z" fill="#4F46E5"/>
<path d="M188.889 216.806C188.054 220.155 190.092 223.547 193.441 224.382C196.79 225.217 200.182 223.179 201.017 219.83C201.852 216.481 199.814 213.089 196.465 212.254C193.116 211.419 189.724 213.457 188.889 216.806ZM190.344 217.169C190.979 214.623 193.557 213.074 196.102 213.709C198.647 214.344 200.196 216.922 199.562 219.467C198.927 222.013 196.349 223.562 193.804 222.927C191.258 222.292 189.709 219.714 190.344 217.169Z" fill="#4F46E5"/>
<path d="M438.85 423.811L418.898 422.415C414.491 422.107 410.668 425.43 410.36 429.838L409.383 443.804C409.075 448.211 412.398 452.034 416.806 452.342L436.757 453.738C441.165 454.046 444.987 450.723 445.296 446.315L446.272 432.349C446.58 427.942 443.257 424.119 438.85 423.811Z" fill="white"/>
<path d="M418.896 422.197L438.847 423.592C443.255 423.9 446.578 427.723 446.27 432.13L445.293 446.096C444.985 450.504 441.162 453.827 436.755 453.519L416.803 452.124C412.396 451.815 409.073 447.993 409.381 443.585L410.357 429.619C410.666 425.212 414.489 421.889 418.896 422.197ZM418.791 423.693C415.21 423.443 412.104 426.143 411.854 429.724L410.877 443.69C410.627 447.271 413.327 450.377 416.908 450.627L436.859 452.022C440.44 452.273 443.546 449.573 443.797 445.992L444.773 432.026C445.024 428.445 442.324 425.339 438.743 425.088L418.791 423.693Z" fill="#4F46E5"/>
<path fill-rule="evenodd" clip-rule="evenodd" d="M319.892 621.527L320.841 207.857H321.786V205.795H148.825V152.377L320.93 -0.143066H384.808V152.377H433.825V205.795H384.808V207.857H384.825V650.857H384.808V772.38H433.825V825.79H384.808V865.86H321.786V825.79H148.825V772.38L319.892 621.527ZM215.93 772.36H320.93L320.43 684.857L215.93 772.36ZM215.825 152.857H320.825L320.43 64.8569L215.825 152.857Z" fill="#EEF5FF"/>
<path d="M319.538 621.188L320.486 207.856C320.487 207.442 320.822 207.107 321.236 207.107H321.431V206.545H149.22C148.806 206.545 148.47 206.209 148.47 205.795V152.377C148.47 152.163 148.562 151.958 148.723 151.816L320.828 -0.704071C320.965 -0.825071 321.142 -0.893066 321.325 -0.893066H385.203C385.617 -0.893066 385.953 -0.557066 385.953 -0.143066V151.627H434.22C434.634 151.627 434.97 151.963 434.97 152.377V205.795C434.97 206.209 434.634 206.545 434.22 206.545H385.953V207.697C385.964 207.749 385.97 207.802 385.97 207.857V650.857C385.97 650.912 385.964 650.966 385.953 651.018V771.63H434.22C434.634 771.63 434.97 771.96 434.97 772.38V825.79C434.97 826.21 434.634 826.54 434.22 826.54H385.953V865.86C385.953 866.27 385.617 866.61 385.203 866.61H322.181C321.767 866.61 321.431 866.27 321.431 865.86V826.54H149.22C148.806 826.54 148.47 826.21 148.47 825.79V772.38C148.47 772.16 148.563 771.96 148.724 771.81L319.538 621.188ZM321.431 207.107H322.181L321.431 207.857V207.107ZM321.037 621.529C321.037 621.744 320.945 621.948 320.783 622.09L149.97 772.72V825.04H322.181C322.595 825.04 322.931 825.38 322.931 825.79V865.11H384.453V825.79C384.453 825.38 384.789 825.04 385.203 825.04H433.47V773.13H385.203C384.789 773.13 384.453 772.79 384.453 772.38V650.857C384.453 650.802 384.459 650.749 384.47 650.697V208.018C384.459 207.966 384.453 207.912 384.453 207.857V205.795C384.453 205.38 384.789 205.045 385.203 205.045H433.47V153.127H385.203C384.789 153.127 384.453 152.792 384.453 152.377V0.606934H321.61L149.97 152.715V205.045H322.181C322.595 205.045 322.931 205.38 322.931 205.795V207.857C322.931 208.272 322.595 208.607 322.181 208.607H321.984L321.037 621.529ZM216.325 773.11C215.625 773.11 215.307 772.23 215.844 771.78L320.344 684.282C320.831 683.875 321.572 684.218 321.575 684.853L322.075 772.35C322.078 772.77 321.741 773.11 321.325 773.11H216.325ZM320.571 771.61L320.085 686.456L218.389 771.61H320.571ZM216.22 153.607C215.52 153.607 215.202 152.734 215.737 152.283L320.343 64.2839C320.829 63.8739 321.573 64.2179 321.575 64.8539L321.97 152.854C321.972 153.27 321.636 153.607 321.22 153.607H216.22ZM320.467 152.107L320.083 66.4619L218.277 152.107H320.467Z" fill="#4F46E5"/>
<path d="M291.325 558.857C194.703 558.857 148.825 514.057 148.825 432.507C148.825 351.307 194.703 306.857 291.325 306.857C387.6 306.857 433.825 351.657 433.825 432.507C433.825 513.707 387.6 558.857 291.325 558.857ZM290.825 505.857C346.469 505.857 371.825 478.264 371.825 432.508C371.825 387.101 346.469 359.857 290.825 359.857C235.182 359.857 209.825 386.752 209.825 432.508C209.825 478.613 235.182 505.857 290.825 505.857Z" fill="#EEF5FF"/>
<path d="M291.72 559.607C196.415 559.607 148.47 516.047 148.47 432.507C148.47 349.363 196.374 306.107 291.72 306.107C386.704 306.107 434.97 349.7 434.97 432.507C434.97 515.71 386.664 559.607 291.72 559.607ZM291.72 558.107C385.866 558.107 433.47 514.848 433.47 432.507C433.47 350.564 385.908 307.607 291.72 307.607C197.171 307.607 149.97 350.228 149.97 432.507C149.97 515.185 197.213 558.107 291.72 558.107ZM291.22 506.607C236.896 506.607 209.47 480.668 209.47 432.508C209.47 384.745 236.862 359.107 291.22 359.107C345.443 359.107 372.97 384.962 372.97 432.508C372.97 480.451 345.411 506.607 291.22 506.607ZM291.22 505.107C344.6 505.107 371.47 479.605 371.47 432.508C371.47 385.813 344.635 360.607 291.22 360.607C237.669 360.607 210.97 385.597 210.97 432.508C210.97 479.82 237.706 505.107 291.22 505.107Z" fill="#4F46E5"/>
<path d="M198.939 537.356C165.186 516.551 148.825 481.036 148.825 432.507C148.825 383.743 165.487 348.233 199.873 327.645L229.414 379.067C216.15 391.509 209.825 409.656 209.825 432.508C209.825 454.781 215.743 472.653 228.134 485.177L198.939 537.356ZM383.711 537.356L354.516 485.177C366.907 472.653 372.825 454.781 372.825 432.508C372.825 409.656 366.5 391.509 353.237 379.067L382.777 327.645C417.163 348.233 433.825 383.743 433.825 432.507C433.825 481.036 417.465 516.551 383.711 537.356Z" fill="#4F46E5"/>
<path d="M193.463 438.556C192.633 444.795 187.291 449.608 180.825 449.608C174.359 449.608 169.018 444.795 168.187 438.556L167.356 439.388C167.063 439.681 166.588 439.681 166.295 439.388C166.002 439.095 166.002 438.62 166.295 438.327L168.825 435.797L171.356 438.327C171.648 438.62 171.648 439.095 171.356 439.388C171.063 439.681 170.588 439.681 170.295 439.388L169.75 438.843C170.645 443.87 174.878 447.741 180.075 448.083V426.548C179.915 426.523 179.755 426.489 179.596 426.446C177.062 425.767 175.558 423.162 176.237 420.628C176.916 418.094 179.521 416.591 182.055 417.269C184.589 417.948 186.092 420.553 185.413 423.087C184.913 424.954 183.368 426.262 181.575 426.549V448.083C186.772 447.741 191.006 443.87 191.901 438.843L191.356 439.388C191.063 439.681 190.588 439.681 190.295 439.388C190.002 439.095 190.002 438.62 190.295 438.327L192.825 435.797L195.356 438.327C195.648 438.62 195.648 439.095 195.356 439.388C195.063 439.681 194.588 439.681 194.295 439.388L193.463 438.556ZM179.984 424.997C181.718 425.461 183.5 424.433 183.964 422.699C184.429 420.965 183.4 419.183 181.666 418.718C179.933 418.254 178.15 419.283 177.686 421.016C177.221 422.75 178.25 424.532 179.984 424.997Z" fill="white"/>
<path d="M402.575 448.083V426.548C402.735 426.523 402.895 426.489 403.055 426.446C405.589 425.767 407.092 423.162 406.413 420.628C405.734 418.094 403.13 416.591 400.596 417.269C398.062 417.948 396.558 420.553 397.237 423.087C397.737 424.954 399.283 426.262 401.075 426.549V448.083C395.878 447.741 391.645 443.87 390.75 438.843L391.295 439.388C391.588 439.681 392.063 439.681 392.356 439.388C392.648 439.095 392.648 438.62 392.356 438.327L389.825 435.797L387.295 438.327C387.002 438.62 387.002 439.095 387.295 439.388C387.588 439.681 388.063 439.681 388.356 439.388L389.187 438.556C390.018 444.795 395.359 449.608 401.825 449.608C408.291 449.608 413.633 444.795 414.463 438.556L415.295 439.388C415.588 439.681 416.063 439.681 416.356 439.388C416.648 439.095 416.648 438.62 416.356 438.327L413.825 435.797L411.295 438.327C411.002 438.62 411.002 439.095 411.295 439.388C411.588 439.681 412.063 439.681 412.356 439.388L412.901 438.843C412.006 443.87 407.772 447.741 402.575 448.083ZM402.666 424.997C400.933 425.461 399.15 424.433 398.686 422.699C398.221 420.965 399.25 419.183 400.984 418.718C402.718 418.254 404.5 419.283 404.964 421.016C405.429 422.75 404.4 424.532 402.666 424.997Z" fill="white"/>
<path fill-rule="evenodd" clip-rule="evenodd" d="M595.83 139.857L529.4 152.592C536.66 160.614 545.93 164.829 557.22 165.237C568.51 165.645 583.95 164.342 603.54 161.327L595.83 139.857Z" fill="white"/>
<path d="M579.52 141.012L579.15 139.558L527.82 152.579L528.66 153.503C536.05 161.676 545.52 165.979 557.01 166.394C568.35 166.804 583.84 165.497 603.47 162.476L603.24 160.993C583.69 164.001 568.3 165.301 557.06 164.895C546.41 164.51 537.61 160.688 530.63 153.415L579.52 141.012Z" fill="#4F46E5"/>
<mask id="mask0_1_71" style="mask-type:alpha" maskUnits="userSpaceOnUse" x="401" y="122" width="140" height="167">
<path d="M460.325 288.857L470.33 248.857L489.1 251.482C504.98 253.701 520.04 243.834 524.35 228.397L539.3 174.885C545.39 153.075 532.64 130.458 510.83 124.368C507.24 123.366 503.53 122.857 499.81 122.857H466.162C453.886 122.857 443.155 131.138 440.043 143.013L401.825 288.857H460.325Z" fill="white"/>
</mask>
<g mask="url(#mask0_1_71)">
<path d="M460.325 288.857L470.33 248.857L489.1 251.482C504.98 253.701 520.04 243.834 524.35 228.397L539.3 174.885C545.39 153.075 532.64 130.458 510.83 124.368C507.24 123.366 503.53 122.857 499.81 122.857H466.162C453.886 122.857 443.155 131.138 440.043 143.013L401.825 288.857H460.325Z" fill="white"/>
<mask id="mask1_1_71" style="mask-type:alpha" maskUnits="userSpaceOnUse" x="401" y="122" width="140" height="167">
<path d="M460.325 288.857L470.33 248.857L489.1 251.482C504.98 253.701 520.04 243.834 524.35 228.397L539.3 174.885C545.39 153.075 532.64 130.458 510.83 124.368C507.24 123.366 503.53 122.857 499.81 122.857H466.162C453.886 122.857 443.155 131.138 440.043 143.013L401.825 288.857H460.325Z" fill="white"/>
</mask>
<g mask="url(#mask1_1_71)">
<path d="M460.325 288.857L470.33 248.857L489.1 251.482C504.98 253.701 520.04 243.834 524.35 228.397L539.3 174.885C545.39 153.075 532.64 130.458 510.83 124.368C507.24 123.366 503.53 122.857 499.81 122.857H466.162C453.886 122.857 443.155 131.138 440.043 143.013L401.825 288.857H460.325Z" fill="white"/>
<path fill-rule="evenodd" clip-rule="evenodd" d="M532.69 182.498L537.83 181.857L537.15 192.223C537.06 193.757 535.73 194.92 534.2 194.82C534.13 194.816 534.06 194.809 533.99 194.799C532.35 194.569 531.21 193.052 531.44 191.411L532.69 182.498Z" fill="#4F46E5"/>
</g>
<path d="M489 252.225C505.24 254.496 520.66 244.398 525.08 228.599L540.02 175.086C546.22 152.878 533.24 129.847 511.04 123.646C507.38 122.625 503.6 122.107 499.81 122.107H466.162C453.545 122.107 442.516 130.618 439.318 142.823L400.854 289.607H460.911L470.89 249.694L489 252.225ZM459.74 288.107H402.797L440.769 143.203C443.794 131.658 454.227 123.607 466.162 123.607H499.81C503.47 123.607 507.11 124.106 510.63 125.091C532.04 131.069 544.55 153.273 538.57 174.683L523.63 228.195C519.42 243.271 504.71 252.906 489.21 250.739L469.76 248.021L459.74 288.107Z" fill="#4F46E5"/>
</g>
<mask id="mask2_1_71" style="mask-type:alpha" maskUnits="userSpaceOnUse" x="412" y="122" width="94" height="84">
<path d="M479.81 176.841L476.95 173.983C470.79 167.818 460.809 167.762 454.575 173.857C448.647 179.654 448.54 189.159 454.337 195.087C454.501 195.255 454.669 195.419 454.841 195.579L456.873 197.471C446.132 202.094 431.449 204.889 412.825 205.857L439.354 138.107C442.956 128.909 451.824 122.857 461.702 122.857H505.33C496.06 146.857 487.56 164.852 479.81 176.841Z" fill="white"/>
</mask>
<g mask="url(#mask2_1_71)">
<path d="M479.81 176.841L476.95 173.983C470.79 167.818 460.809 167.762 454.575 173.857C448.647 179.654 448.54 189.159 454.337 195.087C454.501 195.255 454.669 195.419 454.841 195.579L456.873 197.471C446.132 202.094 431.449 204.889 412.825 205.857L439.354 138.107C442.956 128.909 451.824 122.857 461.702 122.857H505.33C496.06 146.857 487.56 164.852 479.81 176.841Z" fill="#4F46E5"/>
</g>
<path fill-rule="evenodd" clip-rule="evenodd" d="M465.825 102.357L491.83 81.357L510.33 102.357" fill="white"/>
<path fill-rule="evenodd" clip-rule="evenodd" d="M441.825 102.357C441.825 102.357 447.325 109.191 458.325 122.857H514.83L534.83 102.357C472.83 102.357 441.825 102.357 441.825 102.357Z" fill="white"/>
<path d="M491.74 82.892L509.76 103.353L510.89 102.361L491.91 80.822L465.354 102.274L466.297 103.441L491.74 82.892Z" fill="#4F46E5"/>
<path d="M441.241 103.328L457.741 123.828C457.884 124.005 458.099 124.107 458.326 124.107H514.83C515.03 124.107 515.22 124.026 515.36 123.881L535.36 103.381C535.83 102.906 535.49 102.107 534.83 102.107H441.826C441.196 102.107 440.846 102.837 441.241 103.328ZM533.05 103.607L514.51 122.607H458.685L443.392 103.607H533.05Z" fill="#4F46E5"/>
<path fill-rule="evenodd" clip-rule="evenodd" d="M529.83 183.857L531.33 217.857L515.83 206.357" fill="white"/>
<path fill-rule="evenodd" clip-rule="evenodd" d="M406.325 265.857H443.43L444.43 289.444L457.93 265.857H470.33L462.325 289.857L398.825 289.357L406.325 265.857Z" fill="white"/>
<path d="M511.56 181.824L510.38 190.246C510.15 191.886 508.63 193.029 506.99 192.799C505.35 192.568 504.21 191.051 504.44 189.411L505.66 180.722L490.19 177.833C489.78 177.757 489.51 177.365 489.59 176.958C489.66 176.551 490.06 176.283 490.46 176.359L515.96 181.12C516.37 181.196 516.64 181.588 516.56 181.995C516.49 182.402 516.09 182.671 515.69 182.595L511.56 181.824ZM529.94 182.616L537.68 181.121C538.09 181.042 538.48 181.308 538.56 181.715C538.64 182.122 538.37 182.515 537.97 182.594L530.61 184.015L532.07 217.324C532.1 217.955 531.39 218.336 530.88 217.96L528.58 216.256L531.33 225.857C527.87 224.914 525.07 222.381 523.78 219.036L523.33 217.857C517.09 220.809 510.22 222.127 503.33 221.688L490.33 220.857L517.67 208.161L515.38 206.46C515.05 206.213 514.98 205.743 515.22 205.41C515.47 205.078 515.94 205.008 516.27 205.255L530.51 215.816L529.08 183.39C529.06 182.977 529.38 182.626 529.79 182.608C529.84 182.606 529.89 182.609 529.94 182.616Z" fill="#4F46E5"/>
<path d="M444.793 290.469L434.35 327.846C434.239 328.245 433.825 328.478 433.426 328.367C433.027 328.255 432.794 327.842 432.906 327.443L443.239 290.457L398.819 290.107C398.314 290.103 397.957 289.611 398.111 289.129L405.611 265.629C405.71 265.318 405.999 265.107 406.325 265.107H443.43C443.832 265.107 444.163 265.424 444.18 265.826L445.07 286.817L457.28 265.485C457.413 265.251 457.661 265.107 457.93 265.107H470.33C470.84 265.107 471.2 265.609 471.04 266.095L463.037 290.095C462.934 290.403 462.644 290.61 462.319 290.607L444.793 290.469ZM399.849 288.615L443.659 288.96L442.712 266.607H406.873L399.849 288.615ZM461.786 289.103L469.28 266.607H458.365L445.563 288.975L461.786 289.103Z" fill="#4F46E5"/>
<path fill-rule="evenodd" clip-rule="evenodd" d="M538.53 152.857H597.33C600.33 166.191 611.99 172.857 632.33 172.857C636.34 172.857 641.31 171.394 647.24 168.466L662.33 168.357V122.857H504.83C506.82 139.96 521.31 152.857 538.53 152.857Z" fill="white"/>
<path d="M632.22 173.607C636.33 173.607 641.36 172.138 647.31 169.214L662.97 169.102V122.107H503.88L503.98 122.944C506.01 140.425 520.82 153.607 538.42 153.607H596.63C599.92 166.948 611.87 173.607 632.22 173.607ZM661.47 123.607V167.613L646.96 167.717L646.8 167.793C640.97 170.674 636.1 172.107 632.22 172.107C612.2 172.107 600.86 165.628 597.95 152.693L597.82 152.107H538.42C521.87 152.107 507.89 139.914 505.57 123.607H661.47Z" fill="#4F46E5"/>
<path d="M504.28 123.468C513.86 130.312 525.33 130.312 538.56 123.525L537.88 122.19C525.11 128.737 514.24 128.737 505.16 122.247L504.28 123.468Z" fill="#4F46E5"/>
<path d="M685.83 120.857H661.83V211.857H685.83V120.857Z" fill="white"/>
<path d="M661.22 120.857H686.22V211.857H661.22V120.857ZM662.72 210.357H684.72V122.357H662.72V210.357Z" fill="#4F46E5"/>
<path d="M673.72 201.607C677.17 201.607 679.97 198.809 679.97 195.357C679.97 191.906 677.17 189.107 673.72 189.107C670.27 189.107 667.47 191.906 667.47 195.357C667.47 198.809 670.27 201.607 673.72 201.607ZM673.72 200.107C671.1 200.107 668.97 197.981 668.97 195.357C668.97 192.734 671.1 190.607 673.72 190.607C676.34 190.607 678.47 192.734 678.47 195.357C678.47 197.981 676.34 200.107 673.72 200.107Z" fill="#4F46E5"/>
<path d="M385.324 151.607L149.824 152.107L149.827 153.607L385.327 153.107L385.324 151.607Z" fill="#4F46E5"/>
<path d="M385.325 205.357L321.22 206.357" stroke="#4F46E5" stroke-width="1.5"/>
<path d="M364.575 826.61H343.075V864.86C343.075 865.27 342.739 865.61 342.325 865.61C341.911 865.61 341.575 865.27 341.575 864.86V826.61H321.825V825.11H385.825V826.61H366.075V864.86C366.075 865.27 365.739 865.61 365.325 865.61C364.911 865.61 364.575 865.27 364.575 864.86V826.61Z" fill="#4F46E5"/>
<path d="M433.628 771.61H149.825C149.411 771.61 149.075 771.94 149.075 772.36C149.075 772.77 149.411 773.11 149.825 773.11H433.628C434.042 773.11 434.378 772.77 434.378 772.36C434.378 771.94 434.042 771.61 433.628 771.61Z" fill="#4F46E5"/>
<path fill-rule="evenodd" clip-rule="evenodd" d="M266.825 137.857H274.825C279.243 137.857 282.825 141.439 282.825 145.857V203.857C282.825 210.485 277.453 215.857 270.825 215.857C264.198 215.857 258.825 210.485 258.825 203.857V145.857C258.825 141.439 262.407 137.857 266.825 137.857Z" fill="white"/>
<path fill-rule="evenodd" clip-rule="evenodd" d="M290.825 137.857H298.825C303.243 137.857 306.825 141.439 306.825 145.857V203.857C306.825 210.485 301.453 215.857 294.825 215.857C288.198 215.857 282.825 210.485 282.825 203.857V145.857C282.825 141.439 286.407 137.857 290.825 137.857Z" fill="white"/>
<path fill-rule="evenodd" clip-rule="evenodd" d="M314.825 137.857H322.825C327.243 137.857 330.825 141.439 330.825 145.857V203.857C330.825 210.485 325.453 215.857 318.825 215.857C312.198 215.857 306.825 210.485 306.825 203.857V145.857C306.825 141.439 310.407 137.857 314.825 137.857Z" fill="white"/>
<path d="M306.72 206.869C305.203 212.063 300.405 215.857 294.72 215.857C289.036 215.857 284.238 212.063 282.72 206.869C281.203 212.063 276.405 215.857 270.72 215.857C263.817 215.857 258.22 210.261 258.22 203.357V145.857C258.22 141.439 261.802 137.857 266.22 137.857H275.22C278.657 137.857 281.588 140.025 282.72 143.067C283.853 140.025 286.783 137.857 290.22 137.857H299.22C302.657 137.857 305.588 140.025 306.72 143.067C307.853 140.025 310.783 137.857 314.22 137.857H323.22C327.638 137.857 331.22 141.439 331.22 145.857V203.357C331.22 210.261 325.624 215.857 318.72 215.857C313.036 215.857 308.238 212.063 306.72 206.869ZM266.22 139.357C262.63 139.357 259.72 142.268 259.72 145.857V203.357C259.72 209.433 264.645 214.357 270.72 214.357C276.795 214.357 281.72 209.433 281.72 203.357V145.857C281.72 142.268 278.81 139.357 275.22 139.357H266.22ZM290.22 139.357C286.63 139.357 283.72 142.268 283.72 145.857V203.357C283.72 209.433 288.645 214.357 294.72 214.357C300.795 214.357 305.72 209.433 305.72 203.357V145.857C305.72 142.268 302.81 139.357 299.22 139.357H290.22ZM314.22 139.357C310.63 139.357 307.72 142.268 307.72 145.857V203.357C307.72 209.433 312.645 214.357 318.72 214.357C324.795 214.357 329.72 209.433 329.72 203.357V145.857C329.72 142.268 326.81 139.357 323.22 139.357H314.22Z" fill="#4F46E5"/>
<path d="M260.868 139.695L237.368 152.195L238.073 153.52L261.573 141.02L260.868 139.695Z" fill="#4F46E5"/>
<path fill-rule="evenodd" clip-rule="evenodd" d="M194.644 325.98C197.513 324.323 201.183 325.306 202.84 328.176L231.34 377.539C232.997 380.409 232.013 384.079 229.144 385.735C226.274 387.392 222.604 386.409 220.947 383.539L192.447 334.176C190.791 331.306 191.774 327.637 194.644 325.98ZM194.644 540.101C192.252 538.721 191.433 535.663 192.813 533.271L222.313 482.176C223.694 479.784 226.752 478.965 229.144 480.346C231.535 481.726 232.354 484.784 230.974 487.176L201.474 538.271C200.093 540.663 197.035 541.482 194.644 540.101ZM387.962 326.096C390.592 327.614 391.494 330.978 389.975 333.609L361.975 382.106C360.456 384.737 357.092 385.638 354.462 384.119C351.831 382.601 350.93 379.237 352.449 376.606L380.449 328.109C381.967 325.478 385.331 324.577 387.962 326.096ZM387.895 538.869C385.025 540.526 381.355 539.543 379.699 536.673L351.699 488.176C350.042 485.306 351.025 481.637 353.895 479.98C356.764 478.323 360.434 479.306 362.091 482.176L390.091 530.673C391.748 533.543 390.764 537.213 387.895 538.869Z" fill="white"/>
<path d="M194.825 325.547C197.934 323.752 201.91 324.817 203.704 327.926L232.204 377.289C233.999 380.398 232.934 384.374 229.825 386.168C226.716 387.963 222.741 386.898 220.946 383.789L192.446 334.426C190.651 331.317 191.716 327.342 194.825 325.547ZM193.745 333.676L222.245 383.039C223.626 385.431 226.684 386.25 229.075 384.869C231.467 383.489 232.286 380.431 230.905 378.039L202.405 328.676C201.025 326.284 197.967 325.465 195.575 326.846C193.184 328.226 192.364 331.284 193.745 333.676ZM194.825 540.168C191.716 538.374 190.651 534.398 192.446 531.289L220.946 481.926C222.741 478.817 226.716 477.752 229.825 479.547C232.934 481.342 233.999 485.317 232.204 488.426L203.704 537.789C201.91 540.898 197.934 541.963 194.825 540.168ZM195.575 538.869C197.967 540.25 201.025 539.431 202.405 537.039L230.905 487.676C232.286 485.284 231.467 482.226 229.075 480.846C226.684 479.465 223.626 480.284 222.245 482.676L193.745 532.039C192.364 534.431 193.184 537.489 195.575 538.869ZM389.076 325.547C392.185 327.342 393.25 331.317 391.456 334.426L362.956 383.789C361.161 386.898 357.185 387.963 354.076 386.168C350.967 384.374 349.902 380.398 351.697 377.289L380.197 327.926C381.992 324.817 385.967 323.752 389.076 325.547ZM381.496 328.676L352.996 378.039C351.616 380.431 352.435 383.489 354.826 384.869C357.218 386.25 360.276 385.431 361.656 383.039L390.156 333.676C391.537 331.284 390.718 328.226 388.326 326.846C385.935 325.465 382.877 326.284 381.496 328.676ZM389.076 540.168C385.967 541.963 381.992 540.898 380.197 537.789L351.697 488.426C349.902 485.317 350.967 481.342 354.076 479.547C357.185 477.752 361.161 478.817 362.956 481.926L391.456 531.289C393.25 534.398 392.185 538.374 389.076 540.168ZM388.326 538.869C390.718 537.489 391.537 534.431 390.156 532.039L361.656 482.676C360.276 480.284 357.218 479.465 354.826 480.846C352.435 482.226 351.616 485.284 352.996 487.676L381.496 537.039C382.877 539.431 385.935 540.25 388.326 538.869Z" fill="#4F46E5"/>
<path d="M261.842 202.901C261.541 203.186 261.067 203.174 260.781 202.874C260.496 202.574 260.508 202.099 260.809 201.814C267.775 195.195 274.274 195.195 279.899 201.874C280.166 202.191 280.125 202.664 279.808 202.931C279.491 203.198 279.018 203.157 278.752 202.841C273.709 196.853 268.208 196.853 261.842 202.901ZM286.342 202.901C286.041 203.186 285.567 203.174 285.281 202.874C284.996 202.574 285.008 202.099 285.309 201.814C292.275 195.195 298.774 195.195 304.399 201.874C304.666 202.191 304.625 202.664 304.308 202.931C303.991 203.198 303.518 203.157 303.252 202.841C298.209 196.853 292.708 196.853 286.342 202.901ZM310.342 202.901C310.041 203.186 309.567 203.174 309.281 202.874C308.996 202.574 309.008 202.099 309.309 201.814C316.275 195.195 322.774 195.195 328.399 201.874C328.666 202.191 328.625 202.664 328.308 202.931C327.991 203.198 327.518 203.157 327.252 202.841C322.209 196.853 316.708 196.853 310.342 202.901Z" fill="#4F46E5"/>
<path d="M320.325 621.357L320.773 687.857" stroke="#4F46E5" stroke-width="1.5" stroke-linejoin="round"/>
<path d="M320.47 0.352977L321.97 0.36198L321.575 65.362L320.075 65.353L320.47 0.352977ZM341.575 -0.892018C341.575 -1.30702 341.911 -0.392018 342.325 -0.392018C342.739 -0.392018 343.075 -0.0570182 343.075 0.357982L342.825 152.358C342.825 152.772 342.739 152.858 342.325 152.858C341.911 152.858 341.325 152.772 341.325 152.358L341.575 -0.892018ZM365.075 0.357982C365.075 -0.0570182 365.411 -0.392018 365.825 -0.392018C366.239 -0.392018 366.575 -0.0570182 366.575 0.357982L366.325 152.358C366.325 152.772 365.989 153.108 365.575 153.108C365.161 153.108 364.825 152.772 364.825 152.358L365.075 0.357982Z" fill="#4F46E5"/>
</g>
<defs>
<clipPath id="clip0_1_71">
<rect width="775" height="867" fill="white"/>
</clipPath>
</defs>
</svg>
