<svg width="800" height="500" viewBox="0 0 800 500" fill="none" xmlns="http://www.w3.org/2000/svg">
<rect width="800" height="500" fill="white"/>
<path d="M316.557 263.358C314.869 263.358 313.365 263.068 312.044 262.489C310.732 261.909 309.688 261.104 308.912 260.072C308.145 259.033 307.727 257.827 307.659 256.455H310.881C310.949 257.298 311.239 258.027 311.75 258.641C312.261 259.246 312.93 259.714 313.757 260.047C314.584 260.379 315.5 260.545 316.506 260.545C317.631 260.545 318.628 260.349 319.497 259.957C320.366 259.565 321.048 259.02 321.543 258.321C322.037 257.622 322.284 256.812 322.284 255.892C322.284 254.929 322.045 254.081 321.568 253.348C321.091 252.607 320.392 252.027 319.472 251.609C318.551 251.192 317.426 250.983 316.097 250.983H314V248.17H316.097C317.136 248.17 318.048 247.983 318.832 247.608C319.625 247.233 320.243 246.705 320.686 246.023C321.138 245.341 321.364 244.54 321.364 243.619C321.364 242.733 321.168 241.962 320.776 241.305C320.384 240.649 319.83 240.138 319.114 239.771C318.406 239.405 317.571 239.222 316.608 239.222C315.705 239.222 314.852 239.388 314.051 239.72C313.259 240.044 312.611 240.517 312.108 241.139C311.605 241.753 311.332 242.494 311.29 243.364H308.222C308.273 241.991 308.686 240.79 309.462 239.759C310.237 238.719 311.251 237.909 312.504 237.33C313.766 236.75 315.151 236.46 316.659 236.46C318.278 236.46 319.668 236.788 320.827 237.445C321.986 238.092 322.876 238.949 323.499 240.014C324.121 241.08 324.432 242.23 324.432 243.466C324.432 244.94 324.044 246.197 323.268 247.237C322.501 248.277 321.457 248.997 320.136 249.398V249.602C321.79 249.875 323.081 250.578 324.01 251.712C324.939 252.837 325.403 254.23 325.403 255.892C325.403 257.315 325.016 258.594 324.24 259.727C323.473 260.852 322.425 261.739 321.095 262.386C319.766 263.034 318.253 263.358 316.557 263.358ZM336.462 263.46C335.217 263.46 334.088 263.226 333.074 262.757C332.06 262.28 331.254 261.594 330.658 260.699C330.061 259.795 329.763 258.705 329.763 257.426C329.763 256.301 329.984 255.389 330.428 254.69C330.871 253.983 331.463 253.429 332.205 253.028C332.946 252.628 333.764 252.33 334.659 252.134C335.563 251.929 336.47 251.767 337.382 251.648C338.575 251.494 339.543 251.379 340.284 251.303C341.034 251.217 341.58 251.077 341.92 250.881C342.27 250.685 342.445 250.344 342.445 249.858V249.756C342.445 248.494 342.099 247.514 341.409 246.815C340.727 246.116 339.692 245.767 338.303 245.767C336.862 245.767 335.733 246.082 334.915 246.713C334.097 247.344 333.521 248.017 333.189 248.733L330.325 247.71C330.837 246.517 331.518 245.588 332.371 244.923C333.232 244.25 334.169 243.781 335.183 243.517C336.206 243.244 337.212 243.108 338.2 243.108C338.831 243.108 339.555 243.185 340.374 243.338C341.2 243.483 341.997 243.786 342.764 244.246C343.54 244.706 344.183 245.401 344.695 246.33C345.206 247.259 345.462 248.503 345.462 250.062V263H342.445V260.341H342.291C342.087 260.767 341.746 261.223 341.268 261.709C340.791 262.195 340.156 262.608 339.364 262.949C338.571 263.29 337.604 263.46 336.462 263.46ZM336.922 260.75C338.115 260.75 339.121 260.516 339.939 260.047C340.766 259.578 341.388 258.973 341.805 258.232C342.232 257.49 342.445 256.71 342.445 255.892V253.131C342.317 253.284 342.036 253.425 341.601 253.553C341.175 253.672 340.68 253.778 340.118 253.872C339.564 253.957 339.023 254.034 338.494 254.102C337.974 254.162 337.553 254.213 337.229 254.256C336.445 254.358 335.712 254.524 335.03 254.754C334.357 254.976 333.811 255.312 333.393 255.764C332.984 256.207 332.78 256.812 332.78 257.58C332.78 258.628 333.168 259.42 333.943 259.957C334.727 260.486 335.72 260.75 336.922 260.75ZM363.088 243.364V246.176H353.985V263H350.968V243.364H363.088ZM367.492 270.364V243.364H370.407V246.483H370.765C370.986 246.142 371.293 245.707 371.685 245.179C372.086 244.642 372.657 244.165 373.398 243.747C374.148 243.321 375.162 243.108 376.441 243.108C378.094 243.108 379.551 243.521 380.813 244.348C382.074 245.175 383.059 246.347 383.766 247.864C384.473 249.381 384.827 251.17 384.827 253.233C384.827 255.312 384.473 257.115 383.766 258.641C383.059 260.158 382.078 261.334 380.826 262.169C379.573 262.996 378.128 263.409 376.492 263.409C375.23 263.409 374.221 263.2 373.462 262.783C372.703 262.357 372.12 261.875 371.711 261.338C371.301 260.793 370.986 260.341 370.765 259.983H370.509V270.364H367.492ZM370.458 253.182C370.458 254.665 370.675 255.973 371.11 257.107C371.544 258.232 372.179 259.114 373.015 259.753C373.85 260.384 374.873 260.699 376.083 260.699C377.344 260.699 378.397 260.366 379.24 259.702C380.093 259.028 380.732 258.125 381.158 256.991C381.593 255.849 381.81 254.58 381.81 253.182C381.81 251.801 381.597 250.557 381.171 249.449C380.753 248.332 380.118 247.45 379.266 246.803C378.422 246.146 377.361 245.818 376.083 245.818C374.855 245.818 373.824 246.129 372.989 246.751C372.154 247.365 371.523 248.226 371.097 249.334C370.671 250.433 370.458 251.716 370.458 253.182ZM390.669 270.364C390.158 270.364 389.702 270.321 389.301 270.236C388.901 270.159 388.624 270.082 388.471 270.006L389.238 267.347C389.971 267.534 390.618 267.602 391.181 267.551C391.743 267.5 392.242 267.249 392.676 266.797C393.12 266.354 393.525 265.634 393.891 264.636L394.453 263.102L387.192 243.364H390.465L395.885 259.011H396.09L401.51 243.364H404.783L396.448 265.864C396.073 266.878 395.608 267.717 395.054 268.382C394.5 269.055 393.857 269.554 393.124 269.878C392.4 270.202 391.581 270.364 390.669 270.364ZM407.538 257.989H410.76C410.828 258.875 411.228 259.548 411.961 260.009C412.703 260.469 413.666 260.699 414.85 260.699C416.061 260.699 417.096 260.452 417.957 259.957C418.818 259.455 419.248 258.645 419.248 257.528C419.248 256.872 419.086 256.301 418.762 255.815C418.439 255.321 417.983 254.937 417.395 254.665C416.806 254.392 416.112 254.256 415.311 254.256H411.936V251.545H415.311C416.512 251.545 417.399 251.273 417.97 250.727C418.549 250.182 418.839 249.5 418.839 248.682C418.839 247.804 418.528 247.101 417.906 246.572C417.284 246.036 416.402 245.767 415.26 245.767C414.109 245.767 413.15 246.027 412.383 246.547C411.616 247.058 411.211 247.719 411.169 248.528H407.998C408.032 247.472 408.356 246.538 408.97 245.729C409.583 244.911 410.419 244.271 411.475 243.811C412.532 243.342 413.743 243.108 415.106 243.108C416.487 243.108 417.684 243.351 418.699 243.837C419.721 244.314 420.51 244.966 421.064 245.793C421.626 246.611 421.907 247.54 421.907 248.58C421.907 249.688 421.596 250.582 420.974 251.264C420.352 251.946 419.572 252.432 418.635 252.722V252.926C419.376 252.977 420.02 253.216 420.565 253.642C421.119 254.06 421.549 254.609 421.856 255.291C422.163 255.964 422.316 256.71 422.316 257.528C422.316 258.722 421.997 259.761 421.358 260.648C420.718 261.526 419.841 262.207 418.724 262.693C417.608 263.17 416.333 263.409 414.902 263.409C413.512 263.409 412.268 263.183 411.169 262.732C410.069 262.271 409.196 261.636 408.548 260.827C407.909 260.009 407.572 259.062 407.538 257.989ZM426.554 263V243.364H429.571V251.903H431.566L438.623 243.364H442.509L434.583 252.824L442.611 263H438.725L432.282 254.716H429.571V263H426.554ZM451.669 263.46C450.424 263.46 449.295 263.226 448.281 262.757C447.267 262.28 446.461 261.594 445.865 260.699C445.268 259.795 444.97 258.705 444.97 257.426C444.97 256.301 445.191 255.389 445.635 254.69C446.078 253.983 446.67 253.429 447.412 253.028C448.153 252.628 448.971 252.33 449.866 252.134C450.77 251.929 451.677 251.767 452.589 251.648C453.782 251.494 454.75 251.379 455.491 251.303C456.241 251.217 456.787 251.077 457.127 250.881C457.477 250.685 457.652 250.344 457.652 249.858V249.756C457.652 248.494 457.306 247.514 456.616 246.815C455.934 246.116 454.899 245.767 453.51 245.767C452.069 245.767 450.94 246.082 450.122 246.713C449.304 247.344 448.728 248.017 448.396 248.733L445.532 247.71C446.044 246.517 446.725 245.588 447.578 244.923C448.439 244.25 449.376 243.781 450.39 243.517C451.413 243.244 452.419 243.108 453.407 243.108C454.038 243.108 454.762 243.185 455.581 243.338C456.407 243.483 457.204 243.786 457.971 244.246C458.747 244.706 459.39 245.401 459.902 246.33C460.413 247.259 460.669 248.503 460.669 250.062V263H457.652V260.341H457.498C457.294 260.767 456.953 261.223 456.475 261.709C455.998 262.195 455.363 262.608 454.571 262.949C453.778 263.29 452.811 263.46 451.669 263.46ZM452.129 260.75C453.322 260.75 454.328 260.516 455.146 260.047C455.973 259.578 456.595 258.973 457.012 258.232C457.439 257.49 457.652 256.71 457.652 255.892V253.131C457.524 253.284 457.243 253.425 456.808 253.553C456.382 253.672 455.887 253.778 455.325 253.872C454.771 253.957 454.23 254.034 453.701 254.102C453.181 254.162 452.76 254.213 452.436 254.256C451.652 254.358 450.919 254.524 450.237 254.754C449.564 254.976 449.018 255.312 448.6 255.764C448.191 256.207 447.987 256.812 447.987 257.58C447.987 258.628 448.375 259.42 449.15 259.957C449.934 260.486 450.927 260.75 452.129 260.75ZM468.374 263.205C467.744 263.205 467.202 262.979 466.751 262.527C466.299 262.075 466.073 261.534 466.073 260.903C466.073 260.273 466.299 259.732 466.751 259.28C467.202 258.828 467.744 258.602 468.374 258.602C469.005 258.602 469.546 258.828 469.998 259.28C470.45 259.732 470.675 260.273 470.675 260.903C470.675 261.321 470.569 261.705 470.356 262.054C470.151 262.403 469.874 262.685 469.525 262.898C469.184 263.102 468.8 263.205 468.374 263.205ZM478.288 263.205C477.658 263.205 477.116 262.979 476.665 262.527C476.213 262.075 475.987 261.534 475.987 260.903C475.987 260.273 476.213 259.732 476.665 259.28C477.116 258.828 477.658 258.602 478.288 258.602C478.919 258.602 479.46 258.828 479.912 259.28C480.364 259.732 480.589 260.273 480.589 260.903C480.589 261.321 480.483 261.705 480.27 262.054C480.065 262.403 479.788 262.685 479.439 262.898C479.098 263.102 478.714 263.205 478.288 263.205ZM488.202 263.205C487.572 263.205 487.031 262.979 486.579 262.527C486.127 262.075 485.901 261.534 485.901 260.903C485.901 260.273 486.127 259.732 486.579 259.28C487.031 258.828 487.572 258.602 488.202 258.602C488.833 258.602 489.374 258.828 489.826 259.28C490.278 259.732 490.504 260.273 490.504 260.903C490.504 261.321 490.397 261.705 490.184 262.054C489.979 262.403 489.702 262.685 489.353 262.898C489.012 263.102 488.629 263.205 488.202 263.205Z" fill="#B4B4B4"/>
</svg>
