<?xml version="1.0" standalone="no"?>
<!DOCTYPE svg PUBLIC "-//W3C//DTD SVG 20010904//EN"
 "http://www.w3.org/TR/2001/REC-SVG-20010904/DTD/svg10.dtd">
<svg version="1.0" xmlns="http://www.w3.org/2000/svg"
 width="1188.000000pt" height="1188.000000pt" viewBox="0 0 1188.000000 1188.000000"
 preserveAspectRatio="xMidYMid meet">
<metadata>
Created by potrace 1.14, written by Peter Selinger 2001-2017
</metadata>
<g transform="translate(0.000000,1188.000000) scale(0.100000,-0.100000)"
fill="#000000" stroke="none">
<path d="M5618 10346 c-1 -2 -37 -7 -78 -10 -41 -4 -86 -9 -100 -11 -72 -11
-97 -15 -120 -20 -14 -3 -35 -8 -47 -10 -44 -10 -59 -13 -103 -25 -25 -7 -52
-14 -60 -15 -8 -2 -49 -15 -90 -30 -41 -14 -79 -27 -85 -29 -5 -2 -23 -8 -38
-14 -16 -7 -31 -12 -33 -12 -3 0 -32 -13 -64 -29 -32 -16 -60 -27 -63 -25 -2
3 -10 -2 -17 -11 -7 -8 -19 -15 -26 -15 -8 0 -42 -17 -76 -38 -35 -21 -67 -40
-73 -42 -16 -5 -201 -127 -218 -144 -9 -9 -19 -16 -22 -16 -4 0 -46 -33 -93
-73 -97 -81 -152 -122 -152 -111 0 3 -6 2 -12 -4 -19 -14 -118 -12 -180 5 -29
8 -64 16 -78 19 -14 2 -36 7 -50 10 -14 4 -36 8 -50 10 -14 2 -54 8 -90 13
-70 10 -376 7 -450 -4 -25 -4 -56 -8 -70 -10 -14 -2 -25 -4 -25 -5 0 -1 -9 -3
-20 -5 -11 -2 -36 -7 -55 -10 -19 -4 -36 -7 -37 -6 -2 0 -21 -6 -43 -14 -22
-8 -42 -14 -45 -15 -3 0 -6 0 -7 -1 -13 -4 -45 -10 -55 -11 -7 -1 -13 -4 -13
-7 0 -4 -12 -8 -26 -9 -15 -1 -32 -6 -38 -10 -6 -5 -33 -17 -61 -27 -67 -24
-279 -127 -283 -137 -2 -4 -10 -8 -17 -8 -8 0 -20 -6 -27 -12 -20 -19 -50 -38
-70 -44 -10 -4 -18 -10 -18 -15 0 -5 -7 -9 -15 -9 -8 0 -15 -4 -15 -10 0 -5
-5 -10 -10 -10 -6 0 -16 -5 -23 -10 -18 -16 -51 -42 -93 -75 -106 -84 -242
-221 -309 -310 -17 -22 -33 -42 -36 -45 -23 -19 -121 -187 -175 -300 -95 -197
-96 -200 -116 -223 -53 -62 -88 -94 -142 -129 -33 -21 -63 -38 -68 -38 -19 0
-256 -123 -293 -152 -5 -4 -44 -32 -86 -62 -43 -29 -94 -69 -115 -87 -40 -35
-231 -228 -249 -251 -6 -7 -38 -51 -73 -98 -34 -47 -65 -90 -69 -96 -10 -13
-30 -46 -66 -114 -17 -30 -34 -56 -39 -58 -4 -2 -8 -9 -8 -15 0 -7 -15 -44
-34 -82 -87 -182 -147 -392 -180 -635 -14 -104 -15 -403 -1 -480 3 -19 8 -51
10 -70 2 -19 13 -75 24 -125 28 -118 27 -115 41 -150 6 -16 11 -32 11 -35 -3
-27 145 -364 177 -403 6 -6 10 -14 9 -17 0 -3 12 -24 26 -47 15 -24 27 -45 27
-48 0 -3 5 -11 10 -18 6 -7 38 -50 72 -97 67 -94 79 -108 188 -220 115 -118
240 -215 395 -306 88 -52 307 -149 361 -159 11 -2 19 -4 19 -5 0 -1 7 -3 15
-5 18 -5 43 -11 95 -25 22 -6 54 -13 70 -16 17 -2 37 -7 45 -10 8 -3 30 -8 49
-10 19 -2 50 -6 70 -9 71 -11 189 -18 361 -19 96 -1 182 -5 190 -8 8 -4 28 -9
44 -13 48 -10 126 -68 243 -182 62 -59 118 -113 125 -118 42 -33 162 -118 213
-150 64 -41 263 -145 277 -145 4 0 27 -9 51 -19 62 -29 248 -86 317 -97 14 -3
48 -9 75 -14 154 -29 222 -35 450 -34 181 1 266 5 366 18 19 3 55 7 80 11 25
3 57 8 70 10 13 2 44 6 69 9 25 3 54 8 66 10 139 27 227 25 308 -9 38 -16 138
-84 144 -97 2 -5 8 -8 12 -8 5 0 47 -24 92 -53 46 -29 137 -80 203 -114 103
-52 151 -73 283 -124 12 -5 32 -13 45 -18 53 -21 280 -82 352 -95 278 -48 274
-47 594 -51 140 -2 266 -7 280 -11 14 -4 32 -8 39 -10 29 -6 99 -46 129 -74
44 -41 80 -96 148 -225 31 -60 66 -122 76 -137 11 -14 19 -28 19 -31 0 -19
212 -311 295 -407 83 -96 263 -267 382 -365 7 -5 18 -15 26 -21 112 -93 285
-193 308 -178 5 3 9 2 9 -3 0 -4 37 -9 83 -10 85 -3 184 16 224 42 21 14 72
92 77 117 1 7 10 38 19 68 25 86 23 210 -4 210 -5 0 -9 6 -9 13 0 8 -9 25 -21
38 -54 63 -72 80 -169 159 -118 96 -311 284 -400 389 -25 29 -50 58 -55 64
-32 35 -135 177 -135 186 0 5 -4 11 -8 13 -10 4 -110 165 -156 252 -35 64 -36
69 -19 81 10 8 85 55 167 106 157 98 310 203 343 236 70 70 103 145 108 241 5
86 -39 192 -100 244 -56 49 -71 59 -92 64 -13 4 -23 9 -23 13 0 9 -5 10 -100
16 -98 6 -150 -11 -270 -90 -83 -54 -226 -138 -240 -141 -4 -1 -33 -13 -137
-60 -30 -14 -187 -62 -228 -70 -11 -2 -31 -6 -45 -9 -73 -16 -68 -15 -210 -31
-106 -11 -349 -7 -485 10 -69 8 -139 18 -159 22 -12 2 -48 9 -81 15 -90 15
-100 17 -100 19 0 1 -13 4 -30 6 -16 3 -36 7 -43 9 -7 2 -14 5 -17 5 -21 2
-264 97 -363 142 -41 18 -43 21 -37 51 4 18 21 46 39 63 53 52 483 354 504
354 3 0 13 6 21 14 16 14 72 47 126 74 17 9 32 19 35 23 3 4 88 47 190 97 182
89 303 140 430 182 36 11 72 24 80 27 8 3 23 8 34 10 10 2 29 12 43 23 14 11
30 20 35 20 21 0 100 87 129 144 63 119 37 265 -66 375 -70 75 -126 96 -257
95 -73 0 -111 -4 -122 -13 -9 -7 -16 -11 -16 -8 0 3 -26 -3 -57 -14 -32 -11
-62 -22 -68 -23 -5 -1 -16 -5 -22 -9 -7 -5 -13 -5 -13 -1 0 3 -6 1 -14 -5 -8
-7 -22 -13 -32 -16 -28 -5 -207 -80 -301 -126 -44 -21 -86 -39 -91 -39 -6 0
-12 -3 -14 -7 -1 -5 -41 -27 -88 -51 -47 -24 -92 -48 -100 -52 -8 -5 -52 -32
-98 -60 -46 -27 -86 -50 -88 -50 -3 0 -20 -11 -38 -25 -18 -14 -36 -25 -39
-25 -3 0 -54 -34 -114 -75 -59 -41 -116 -80 -127 -87 -10 -7 -35 -25 -55 -39
-190 -134 -343 -232 -466 -299 -130 -70 -357 -156 -465 -175 -68 -12 -75 -13
-75 -15 0 -1 -23 -5 -95 -14 -25 -3 -54 -7 -65 -10 -27 -5 -128 -17 -195 -22
-73 -6 -313 -6 -370 0 -147 15 -312 55 -410 98 -25 11 -61 26 -80 35 -36 16
-179 106 -220 139 -89 72 -224 221 -281 309 -61 94 -181 319 -184 345 -1 3 -8
21 -17 40 -32 71 -61 136 -80 180 -80 185 -154 283 -251 328 -174 82 -403 -31
-444 -219 -8 -39 -8 -190 0 -234 14 -73 17 -92 22 -122 3 -18 6 -34 6 -35 0
-2 4 -20 9 -41 l8 -38 -66 6 c-37 3 -85 9 -107 12 -22 3 -53 7 -70 8 -59 5
-215 55 -240 77 -5 4 -15 8 -22 8 -18 0 -158 86 -227 139 -73 57 -159 140
-211 206 -22 27 -48 59 -58 69 -9 11 -17 24 -17 28 0 5 -5 14 -10 21 -76 90
-177 340 -206 508 -9 52 -13 419 -4 419 4 0 6 10 5 23 -2 17 19 130 49 257 4
18 9 33 48 135 120 310 351 545 660 669 38 15 171 54 211 62 12 2 45 8 72 13
28 6 66 12 85 15 19 2 58 8 85 11 28 4 61 9 75 11 14 3 45 7 70 9 237 20 328
48 399 122 37 40 66 98 76 158 24 135 -3 234 -88 318 -23 24 -147 95 -186 108
-11 4 -9 16 12 57 48 96 137 204 231 281 39 32 179 121 189 121 5 0 21 8 35
18 30 21 184 82 205 82 7 0 17 3 21 7 8 8 3 7 146 39 100 23 138 26 295 27 99
0 192 -3 208 -6 15 -4 37 -9 50 -12 62 -13 99 -25 151 -48 31 -14 56 -23 56
-20 0 3 8 -1 18 -9 52 -45 195 -88 268 -81 96 8 136 40 365 279 169 178 382
320 624 415 17 7 32 13 35 13 3 1 11 5 18 9 6 5 12 6 12 3 0 -3 16 2 35 10 19
8 38 14 42 14 5 0 22 4 38 10 17 5 41 11 55 14 14 3 49 9 79 15 29 6 57 8 62
5 5 -3 9 -2 9 3 0 23 403 23 520 -1 14 -3 41 -7 60 -10 63 -8 294 -76 298 -88
2 -4 11 -8 19 -8 23 0 128 -59 154 -86 15 -16 23 -39 25 -67 3 -47 1 -51 -118
-277 -36 -69 -68 -136 -73 -150 -4 -14 -8 -27 -9 -30 -5 -12 -25 -119 -30
-155 -11 -90 -55 -232 -76 -245 -5 -3 -10 -12 -12 -19 -8 -38 -173 -171 -211
-171 -7 0 -17 -4 -22 -9 -15 -14 -111 -39 -253 -66 -45 -8 -128 -54 -157 -87
-38 -41 -68 -88 -58 -88 5 0 3 -4 -4 -8 -23 -14 -36 -142 -22 -216 18 -97 65
-168 144 -218 96 -60 206 -70 380 -33 17 4 35 8 42 9 7 1 16 5 19 9 4 4 14 7
21 7 8 0 38 11 66 24 100 45 134 50 180 28 36 -17 107 -95 107 -117 0 -10 63
-100 72 -103 4 -2 8 -8 8 -13 0 -14 59 -66 108 -96 98 -59 313 -23 391 65 20
24 38 56 47 87 13 47 16 71 16 145 1 124 -7 175 -42 275 -17 50 -33 97 -35
106 -2 9 -8 25 -14 35 -12 23 -50 146 -58 189 -9 53 -9 218 -1 265 21 112 30
147 60 220 5 14 9 25 7 25 -11 0 110 199 156 255 87 107 264 245 395 308 66
32 162 71 190 77 8 2 46 11 84 20 87 20 140 27 241 28 82 1 221 -9 234 -18 4
-2 22 -7 40 -10 93 -16 368 -137 379 -166 2 -5 10 -9 18 -9 8 0 14 -4 14 -8 0
-4 13 -16 30 -25 70 -42 280 -271 280 -307 0 -5 4 -10 8 -10 5 0 19 -24 33
-52 13 -29 27 -56 32 -59 4 -3 10 -14 12 -25 3 -10 14 -46 26 -79 36 -99 39
-118 54 -260 4 -38 9 -79 12 -90 2 -11 6 -32 7 -46 5 -41 45 -153 64 -179 74
-99 162 -137 367 -155 50 -5 126 -16 195 -29 65 -12 96 -19 105 -25 6 -3 21
-7 35 -9 13 -2 29 -7 35 -11 5 -5 24 -11 40 -15 38 -10 80 -28 180 -79 44 -22
90 -45 102 -51 13 -6 23 -14 23 -18 0 -5 5 -8 10 -8 6 0 16 -5 23 -10 7 -6 43
-33 81 -61 69 -52 193 -170 255 -244 93 -111 255 -402 243 -437 -1 -5 3 -8 8
-8 6 0 10 -10 10 -23 0 -13 4 -27 8 -32 5 -6 15 -37 22 -70 8 -33 15 -64 16
-70 20 -77 28 -169 28 -320 -1 -175 -5 -221 -33 -340 -46 -194 -148 -418 -245
-540 -17 -22 -39 -51 -48 -65 -26 -40 -156 -170 -169 -170 -7 0 -9 -3 -6 -7 8
-7 -181 -149 -234 -176 -19 -10 -62 -33 -96 -52 -35 -18 -63 -31 -63 -28 0 3
-6 1 -12 -5 -16 -13 -141 -60 -171 -64 -12 -2 -26 -6 -32 -10 -8 -5 -39 -13
-90 -24 -5 -1 -28 -5 -50 -8 -23 -4 -51 -8 -65 -11 -23 -4 -95 -12 -175 -20
-23 -2 -68 -11 -100 -21 -33 -10 -63 -17 -67 -16 -5 1 -8 -2 -8 -7 0 -5 -8
-12 -19 -16 -29 -9 -99 -83 -122 -128 -26 -50 -45 -116 -55 -187 -26 -199 -33
-508 -19 -800 4 -85 8 -183 9 -217 0 -35 4 -63 7 -63 3 0 6 -22 8 -49 1 -28 4
-60 6 -73 3 -13 8 -48 11 -78 3 -30 7 -66 10 -80 2 -14 7 -41 9 -60 5 -32 28
-162 40 -220 12 -58 17 -86 20 -105 5 -27 41 -173 66 -265 11 -41 25 -93 31
-115 5 -22 11 -44 12 -50 2 -5 6 -17 9 -25 3 -8 13 -40 22 -70 71 -228 224
-336 420 -295 99 21 169 72 209 151 51 103 53 217 7 464 -16 91 -33 181 -36
200 -3 19 -8 47 -10 63 -3 15 -7 39 -9 55 -3 15 -7 38 -10 52 -3 13 -8 42 -11
65 -3 22 -12 78 -20 125 -22 134 -25 152 -31 195 -3 22 -9 63 -14 90 -5 28
-12 68 -15 90 -3 22 -10 67 -15 100 -5 33 -12 83 -16 110 -3 28 -7 52 -9 55
-2 3 -6 28 -9 55 -4 28 -9 59 -11 70 -6 37 -19 140 -19 160 0 113 83 195 224
221 52 9 50 9 70 17 8 4 26 8 40 11 112 19 366 128 523 224 179 109 410 314
543 482 32 41 61 77 64 80 8 8 116 174 123 190 4 8 18 33 32 55 27 43 41 71
104 208 22 48 37 87 34 87 -3 0 -1 6 5 13 8 10 67 184 77 227 6 25 36 163 41
185 2 11 7 40 10 65 3 25 8 56 10 70 10 51 12 388 3 460 -6 41 -10 85 -11 98
0 12 -5 25 -9 28 -5 3 -7 10 -3 15 6 11 -37 191 -67 282 -53 158 -154 371
-243 512 -51 82 -161 232 -216 295 -16 19 -34 40 -38 45 -15 17 -187 179 -211
198 -64 51 -188 140 -215 154 -17 9 -33 19 -36 22 -18 21 -321 169 -385 187
-5 1 -40 14 -77 28 -38 14 -68 22 -68 19 0 -3 -6 -1 -12 5 -7 6 -16 10 -21 10
-20 0 -147 43 -152 52 -4 6 -10 8 -14 6 -9 -6 -69 49 -102 94 -21 28 -66 139
-75 185 -1 6 -11 31 -23 58 -11 26 -20 48 -19 50 2 4 -95 192 -103 197 -3 3
-9 15 -13 28 -4 12 -12 22 -17 22 -5 0 -9 6 -9 13 0 22 -155 220 -242 308 -45
47 -112 109 -148 137 -36 29 -76 61 -88 72 -13 11 -25 20 -28 20 -2 0 -35 20
-73 45 -62 40 -161 93 -261 138 -96 44 -306 104 -428 123 -128 19 -379 25
-477 11 -27 -4 -68 -10 -90 -12 -49 -6 -68 -10 -124 -25 -23 -6 -46 -9 -49 -6
-3 3 -10 2 -16 -3 -6 -4 -44 -18 -84 -30 -40 -12 -85 -27 -100 -33 -15 -6 -29
-12 -32 -13 -24 -8 -48 -18 -62 -26 -10 -5 -48 -17 -85 -27 -111 -31 -200 -14
-333 62 -93 52 -298 151 -345 166 -22 7 -50 19 -62 26 -13 8 -23 12 -23 9 0
-2 -24 4 -52 15 -99 36 -305 83 -423 96 -27 3 -61 8 -75 11 -27 5 -406 14
-412 9z"/>
<path d="M3552 7466 c-88 -29 -174 -120 -209 -221 -14 -41 -14 -151 -1 -195
28 -91 90 -165 212 -250 44 -30 90 -65 103 -77 13 -13 27 -23 31 -23 4 0 15
-8 24 -17 9 -10 31 -29 48 -43 49 -38 139 -129 200 -201 30 -35 58 -66 62 -69
32 -25 193 -334 204 -392 1 -5 3 -10 4 -13 1 -3 3 -8 5 -12 1 -5 7 -21 13 -36
7 -16 12 -31 12 -35 0 -4 27 -33 60 -64 46 -44 72 -61 117 -74 56 -16 134 -20
183 -8 14 3 33 7 43 7 9 1 17 4 17 7 0 3 15 11 33 18 75 27 140 116 152 207 3
28 8 65 11 82 6 52 42 117 73 136 34 20 67 23 141 12 259 -38 435 36 480 204
49 184 -19 348 -174 416 -111 49 -164 55 -496 59 -140 2 -266 7 -280 10 -14 3
-38 8 -54 12 -46 10 -134 53 -182 90 -24 19 -48 34 -53 34 -5 0 -11 4 -13 9
-1 5 -43 41 -93 81 -49 41 -91 77 -93 82 -2 4 -7 8 -12 8 -5 0 -28 18 -51 40
-24 22 -51 43 -61 46 -10 3 -18 9 -18 13 0 12 -146 110 -204 137 -66 30 -173
39 -234 20z"/>
<path d="M8513 7254 c-104 -35 -151 -76 -199 -169 -27 -54 -30 -69 -28 -135 3
-91 5 -104 27 -154 9 -21 17 -42 17 -46 0 -5 3 -10 8 -12 4 -1 29 -36 56 -76
174 -259 486 -462 811 -528 136 -27 262 -31 348 -11 50 12 146 56 167 77 28
28 73 90 65 90 -4 0 -3 6 2 13 13 16 14 24 18 135 2 81 -1 100 -21 142 -52
107 -144 171 -279 194 -64 10 -102 19 -145 33 -25 8 -52 16 -60 18 -36 7 -160
71 -216 110 -66 47 -141 125 -189 195 -39 58 -70 86 -124 111 -83 39 -170 44
-258 13z"/>
</g>
</svg>
