<svg width="165" height="18" viewBox="0 0 165 18" fill="none" xmlns="http://www.w3.org/2000/svg">
<path fill-rule="evenodd" clip-rule="evenodd" d="M45.8789 2.23339L44.291 1.66356C41.0352 0.495838 37.0352 0.745594 35.0273 2.24218C33.7637 3.18456 33.0918 4.65771 33.0918 6.49218C33.0918 9.04296 34.3281 10.2068 38.1035 11.2129C40.6543 11.8921 41.7793 12.3874 41.9727 12.9172C42.2891 13.782 41.5586 14.292 39.7832 14.4421C38.1602 14.5798 36.9688 14.3135 34.6973 13.3052C34.252 13.1076 34.1523 13.3496 33.6816 14.5019L33.5977 14.7058C33.2246 15.6167 32.8379 16.5002 32.9395 16.6743C33.1992 17.1135 36 18 38.5 18C45 18 47.0234 15.8484 46.4023 11.9973C46.0742 9.96166 44.4883 8.71654 41.2891 7.98266C38.0879 7.24828 37.4766 6.93944 37.4766 6.05883C37.4766 4.63451 40.207 4.19286 42.8906 5.1831C44.5215 5.78588 44.582 5.74926 45.3359 3.70458L45.8789 2.23339ZM117.18 2.17406C117.02 2.01122 115.955 1.62768 114.816 1.32128C109 0 105 2.5 104.748 6.46459C104.748 8.03856 104.879 8.35644 105.951 9.38524C106.842 10.2383 107.811 10.7029 109.66 11.1645C112.43 11.8545 113.684 12.5176 113.684 13.2898C113.684 14.6479 110.348 14.9431 107.555 13.832C106.59 13.4485 105.783 13.1701 105.762 13.2143C105.396 13.9804 105.09 14.7702 104.9 15.3999C104.717 16.009 104.643 16.4685 104.727 16.6118C105.139 17.3071 108.942 17.9866 111.5 18C114.488 18.0159 116.35 17.2976 117.404 15.4858C118.211 14.1045 118.279 11.4729 117.539 10.3679C116.824 9.29809 114.939 8.34667 112.504 7.82494C111.391 7.58666 110.215 7.24511 109.891 7.06591C109.211 6.68993 109.115 5.68676 109.705 5.07055C110.27 4.47948 113.129 4.54149 114.578 5.1765C115.244 5.46752 115.902 5.7058 116.039 5.7058C116.457 5.7058 117.492 2.49267 117.18 2.17406ZM14.8828 4.99999V3.05883V1.00001H8H0.720703V3.05883V4.99999H3.07422H5.42578L5.51758 11.4411V18H8H10V11.5V4.99999H12.5234H14.8828ZM31.543 15.9121C30.916 14.2908 30 11.9238 28.9355 9.41186L25.5 1.00001H23.5H21L18.3164 7.54369L14.7383 16.0293L14 18H16H18.5L20.7812 12.1472C21.5039 10.2532 22.166 8.54369 22.6035 7.43456C22.918 6.63964 23.1152 6.15331 23.1367 6.12914C23.168 6.09569 23.5293 6.94237 24.0664 8.28808C24.4746 9.30785 24.9844 10.614 25.5273 12.0408L28 18H30H32.5C32.5 18 32.5 18 31.543 15.9121ZM51 6.00001C52.7207 4.04298 52.959 3.17309 52.9727 2.26464L53 1.00001H51H49V4.50001V8.50001L51 6.00001ZM60.1523 5.81664C61.498 4.29149 63.5488 1.52979 64 1.00001H61.5H59L53.9141 7.17553L48.6035 13.1897V15.6242V18H51H53L52.9883 15.9888C52.9883 15.1938 53.0332 14.612 53.1465 14.1401C53.2559 13.6855 53.4277 13.3325 53.6855 12.9888C54.0703 12.4773 54.502 12.0588 54.6465 12.0588C54.791 12.0588 55.9199 13.4087 57.1543 15.0588L59.5 18H62H64.5C64.3633 17.7576 62.5781 15.2444 60.8496 12.8828L57.707 8.58983L60.1523 5.81664ZM75.4023 10.2395C74.5 10 74 9 72.2266 5.91601L70 1.00001H67.5H66L67.6777 4.91186C68.7402 6.99877 70.6074 10.4131 71.832 12.5C73.8652 15.9695 74.1406 16.2942 75.0703 16.2942C76.0156 16.2942 76.2598 15.9856 78.498 11.9707C81.0508 7.39159 83.5898 1.86988 84 1.00001H82.5H80.5L78.2383 5.44115C76.9082 7.81884 75.6328 9.97826 75.4023 10.2395ZM103.793 16.9272C103.533 16.2881 101.918 12.4692 100.201 8.44115L97 1.00001L95 1.00001H92.5C92.3301 1.5293 85.6699 17.8235 85.5 18H88H90.5L92.1719 12.9411C92.7598 11.4289 93.3906 9.86767 93.8711 8.67968C94.2539 7.73266 94.541 7.02294 94.6328 6.76464C94.9941 5.74584 94.9336 6.10741 97.1484 11.8823L99 18H102H104.146L103.793 16.9272ZM133 4.99999V3V1H126H118.404V3.29418V4.99999H120.934H123.463V11.5293V18H125.5H127.848V11.5293V4.99999H130.377H133ZM147.236 5.01537V3.05883V1H141.016H134.592V3.05883V5.01537H141.016H147.236ZM164.189 6.89379C164.008 4.5891 163 3.5 161.211 2.19555L161.066 2.11107C160 1.5 159.385 1 155 1H149.766V3.41186V4.99999H154.281C158.504 5.17113 158.531 5.1765 159.297 6.11034C159.713 6.94115 159.713 7.11767 159.641 8.0515C158.869 9.59594 158.137 9.93017 153.717 9.93578L149.742 9.94115C149.771 11.1694 149.77 11.9778 149.766 13.0185V14V18H152.5H154.486V15.781V13.4707L155.75 13.478C156.932 13.4846 157.109 13.6365 158.449 15.7722L160 18H162.5H164.621L164.09 17.0881C163.764 16.5542 162.977 15.3486 162.342 14.4087C161.246 12.7905 161.885 12.2549 161.904 12.2353C162.004 12.1316 162.152 12.0239 162.299 11.9194C162.4 11.8459 162.5 11.7739 162.578 11.7058C162.721 11.583 163.141 11.0559 163.568 10.2612C164.191 9.09789 164.312 8.44262 164.189 6.89379ZM84.0098 18V13L84 8.00001C83.9511 8.00001 83.3008 9.46923 82.2363 11.4812C80.7559 14.2795 80 14.8831 80 16V18H82.5H84.0098ZM147.404 11.3528L147.441 9.59594V7.82348H141.016H134.592V9.59594V11.3684H141.016L147.404 11.3528ZM70 16C70 15.1606 69.3613 14.5725 68.4355 12.8081C66.9766 10.0295 66.002 7.47071 66 8.00001C66 8.5293 66 10.167 66 13V18H68H70V16ZM147.236 18V16.1177V14.1765L140.912 14.1609H134.592V16.1177V18H141H147.236Z" fill="#4F46E5"/>
</svg>
