<svg width="183" height="30" viewBox="0 0 183 30" fill="none" xmlns="http://www.w3.org/2000/svg">
<g clip-path="url(#clip0_1_5)">
<path fill-rule="evenodd" clip-rule="evenodd" d="M0 15V30H91.5H183V15V0H91.5H0V15ZM50.496 8.66365L52.1568 9.23329L51.5887 10.7047C50.8 12.7493 50.7372 12.786 49.031 12.1832C46.2264 11.1928 43.3699 11.6344 43.3699 13.0588C43.3699 13.9394 44.0099 14.2482 47.3568 14.9827C50.7016 15.7165 52.3599 16.9616 52.7036 18.9974C53.3535 22.8484 49.4343 25.8289 44.4785 25.2522C42.09 24.9741 38.8979 24.1136 38.6268 23.6742C38.5192 23.5002 38.9247 22.6168 39.315 21.7059C39.8834 20.3785 39.9723 20.0965 40.4642 20.3051C42.84 21.3134 44.0854 21.5799 45.7824 21.4422C47.6382 21.2919 48.4037 20.7819 48.0722 19.9172C47.8691 19.3874 46.6939 18.8922 44.0268 18.2128C40.0784 17.2069 38.7861 16.0429 38.7861 13.4922C38.7861 11.6576 39.4875 10.1845 40.8094 9.24212C42.9091 7.74565 47.0909 7.49577 50.496 8.66365ZM124.241 8.32129C125.433 8.62765 126.545 9.01129 126.713 9.174C127.041 9.49271 125.958 12.7059 125.521 12.7059C125.377 12.7059 124.69 12.4676 123.994 12.1765C122.476 11.5415 119.488 11.4794 118.897 12.0706C118.281 12.6868 118.379 13.6899 119.091 14.0658C119.43 14.2451 120.66 14.5867 121.824 14.8249C124.371 15.3466 126.341 16.2981 127.089 17.3679C127.863 18.4729 127.79 21.1045 126.949 22.4859C125.845 24.2975 123.714 25.2025 120.59 25.1866C117.914 25.1732 114.121 24.3071 113.692 23.6118C113.512 23.3202 114.021 21.7214 114.774 20.2144C114.796 20.1702 115.639 20.4484 116.648 20.832C119.569 21.9431 123.058 21.648 123.058 20.2899C123.058 19.5176 121.745 18.8545 118.851 18.1645C116.915 17.7028 115.902 17.2384 114.973 16.3853C113.851 15.3565 113.714 15.0385 113.714 13.4647C113.714 9.09106 118.375 6.81388 124.241 8.32129ZM19.7457 10.0588V12H17.2775H14.8092V18.5456V24.8824C13.9277 24.8824 13.3988 24.8824 12.5173 24.8824H10.0491L9.95287 18.4412L9.85697 12H7.39651H4.93642V10.0588V8.11765H12.341H19.7457V10.0588ZM34.4386 16.4118C36.4195 20.8765 37.9046 24.8824 38.0809 25.0588C37.9046 25.0588 36.9991 25.0588 35.6769 25.0588H33.2732L30.8762 19.0408C29.5579 15.7309 28.4331 13.0705 28.3766 13.1291C28.3199 13.1873 27.2113 15.8954 25.9127 19.1471L23.5516 25.0588H21.1243H18.6967L19.594 23.0294C20.0877 21.9131 21.7714 18.0946 23.3351 14.5436L26.1792 8.08729L28.5607 8.11765H31.0289L34.4386 16.4118ZM59.5734 9.26471C59.5603 10.1732 59.0847 10.9253 57.2843 12.8824L55.0118 15.3529L55.009 11.7353L55.0058 8.11765H57.2977H59.5896L59.5734 9.26471ZM70.4934 9.08047C70.0234 9.61024 68.4882 11.2916 67.0817 12.8167L64.5246 15.5898L67.8112 19.8829C69.6186 22.2445 71.2579 24.8164 71.4017 25.0588C71.2254 25.0588 70.9913 25.0588 68.9572 25.0588H66.2943L63.9463 22.0588C62.6551 20.4088 61.4753 19.0588 61.3248 19.0588C61.1742 19.0588 60.7222 19.4774 60.3205 19.9888C59.7698 20.6894 59.5896 21.4288 59.5896 22.9888V25.0588H57.2977H55.0058V22.6242V20.1896L60.5593 14.1755L66.1127 8.16141L68.7304 8.13953L71.3485 8.11765L70.4934 9.08047ZM79.708 12.9159C82.0559 16.8215 82.6737 17.6259 83.0284 17.2394C83.2682 16.9782 84.6028 14.8189 85.9941 12.4412L88.524 8.11765H90.2765C91.2405 8.11765 92.0289 8.11765 92.0289 8.11765C91.8526 8.47059 89.0903 14.1236 86.2646 18.9706C83.924 22.9856 83.6684 23.2941 82.6815 23.2941C81.7097 23.2941 81.4198 22.9694 79.2937 19.5C78.0148 17.4131 76.0607 13.9987 74.951 11.9118L72.9338 8.11765H74.8787H76.8237L79.708 12.9159ZM108.959 15.4412C110.753 19.4693 112.443 23.2881 112.714 23.9273L113.185 24.8824H110.717H108.172L105.767 18.8824C103.451 13.1075 103.515 12.7458 103.136 13.7647C102.919 14.3471 101.669 17.2235 100.563 19.9412L98.552 24.8824H96.1871C94.8497 24.8824 93.9682 24.8824 93.7919 24.8824C93.9682 24.7059 100.844 8.64706 101.02 8.11765C101.197 8.11765 102.241 8.11765 103.467 8.11765H105.696L108.959 15.4412ZM143.156 10.0588V12H140.512H137.867V18.5294V25.0588H135.575H133.283V18.5294V12H130.639H127.994V10.2942C127.994 9.35576 127.994 8.32129 127.994 8.11765C128.171 8.11765 131.77 8.11765 135.81 8.11765H143.156V10.0588ZM158.142 10.0588V12.0155H151.638H144.919V10.0588V8.10212H151.638H158.142V10.0588ZM172.754 9.19553C174.88 10.3835 175.68 11.5892 175.87 13.8939C175.999 15.4426 175.872 16.098 175.219 17.2613C174.773 18.0558 174.333 18.583 174.185 18.7059C173.985 18.8711 173.656 19.0588 173.48 19.2353C173.46 19.255 172.793 19.7905 173.937 21.4087C174.602 22.3486 175.424 23.5542 175.764 24.0882L176.382 25.0588H173.875H171.369L169.868 22.7721C168.466 20.6365 168.28 20.4847 167.045 20.478L165.723 20.4706V22.7809V25.0909L163.431 25.0588L160.786 25.0909C160.786 25.0909 160.786 22.5882 160.786 21C160.786 19.4118 160.802 18.5262 160.763 16.9412L164.918 16.9359C169.541 16.9302 170.306 16.596 171.113 15.0515C171.188 14.1176 171.188 13.9412 170.752 13.1104C169.954 12.1765 169.924 12.1712 165.51 12H160.786V10.4118C160.786 9.33346 160.786 8.47059 160.786 8.11765C161.491 8.11765 162.902 8.11765 166.251 8.11765C171.012 8.11765 171.365 8.41941 172.754 9.19553ZM92.3815 19.9412V25.0588H90.2659H88.1503V23.5987C88.1503 22.4816 88.6256 21.2795 90.1746 18.4811C91.2877 16.4693 92.3311 14.8235 92.3815 14.8235C92.3815 14.8235 92.3815 17.1265 92.3815 19.9412ZM158.357 16.596L158.318 18.3529L151.638 18.3685H144.919V16.596V14.8235H151.638H158.357V16.596ZM75.743 19.8081C76.7112 21.5725 77.2197 22.9394 77.2197 23.7787V25.0588H75.104H72.9884L72.9899 20.0294C72.9891 17.1963 72.9324 15.3529 72.9338 14.8235C72.9352 14.2941 74.218 17.0295 75.743 19.8081ZM158.142 23.1176V25.0744H151.53H144.919V23.1176V21.1609H151.53L158.142 21.1765V23.1176Z" fill="#4F46E5"/>
</g>
<defs>
<clipPath id="clip0_1_5">
<rect width="183" height="30" fill="white"/>
</clipPath>
</defs>
</svg>
