<svg width="200" height="30" viewBox="0 0 519 85" fill="none" xmlns="http://www.w3.org/2000/svg">
    <path fill-rule="evenodd" clip-rule="evenodd"
        d="M0 42.5V85H259.5H519V42.5V0H259.5H0V42.5ZM143.21 24.547L147.92 26.161L146.309 30.33C144.072 36.123 143.894 36.227 139.055 34.519C131.101 31.713 123 32.964 123 37C123 39.495 124.815 40.37 134.307 42.451C143.793 44.53 148.496 48.058 149.471 53.826C151.314 64.737 140.199 73.182 126.144 71.548C119.37 70.76 110.317 68.322 109.548 67.077C109.243 66.584 110.393 64.081 111.5 61.5C113.112 57.739 113.364 56.94 114.759 57.531C121.497 60.388 125.029 61.143 129.842 60.753C135.105 60.327 137.276 58.882 136.336 56.432C135.76 54.931 132.427 53.528 124.863 51.603C113.665 48.753 110 45.455 110 38.228C110 33.03 111.989 28.856 115.738 26.186C121.693 21.946 133.553 21.238 143.21 24.547ZM352.356 23.577C355.735 24.445 358.889 25.532 359.365 25.993C360.298 26.896 357.224 36 355.986 36C355.578 36 353.629 35.325 351.654 34.5C347.35 32.701 338.875 32.525 337.2 34.2C335.454 35.946 335.731 38.788 337.75 39.853C338.712 40.361 342.2 41.329 345.5 42.004C352.723 43.482 358.311 46.178 360.434 49.209C362.627 52.34 362.422 59.796 360.035 63.71C356.906 68.843 350.862 71.407 342 71.362C334.411 71.324 323.656 68.87 322.438 66.9C321.928 66.074 323.372 61.544 325.506 57.274C325.568 57.149 327.96 57.937 330.82 59.024C339.105 62.172 349 61.336 349 57.488C349 55.3 345.278 53.421 337.07 51.466C331.579 50.158 328.707 48.842 326.07 46.425C322.888 43.51 322.5 42.609 322.5 38.15C322.5 25.758 335.719 19.306 352.356 23.577ZM56 28.5V34H49H42V52.546V70.5C39.5 70.5 38 70.5 35.5 70.5H28.5L28.227 52.25L27.955 34H20.977H14V28.5V23H35H56V28.5ZM97.67 46.5C103.288 59.15 107.5 70.5 108 71C107.5 71 104.932 71 101.182 71H94.365L87.567 53.949C83.828 44.571 80.638 37.033 80.478 37.199C80.317 37.364 77.173 45.037 73.49 54.25L66.794 71H59.91H53.025L55.57 65.25C56.97 62.087 61.745 51.268 66.18 41.207L74.246 22.914L81 23H88L97.67 46.5ZM168.954 26.25C168.917 28.824 167.568 30.955 162.462 36.5L156.017 43.5L156.009 33.25L156 23H162.5H169L168.954 26.25ZM199.924 25.728C198.591 27.229 194.237 31.993 190.248 36.314L182.996 44.171L192.317 56.335C197.443 63.026 202.092 70.313 202.5 71C202 71 201.336 71 195.567 71H188.015L181.356 62.5C177.694 57.825 174.348 54 173.921 54C173.494 54 172.212 55.186 171.073 56.635C169.511 58.62 169 60.715 169 65.135V71H162.5H156V64.102V57.204L171.75 40.164L187.5 23.124L194.924 23.062L202.349 23L199.924 25.728ZM226.057 36.595C232.716 47.661 234.468 49.94 235.474 48.845C236.154 48.105 239.939 41.987 243.885 35.25L251.06 23H256.03C258.764 23 261 23 261 23C260.5 24 252.666 40.017 244.652 53.75C238.014 65.126 237.289 66 234.49 66C231.734 66 230.912 65.08 224.882 55.25C221.255 49.337 215.713 39.663 212.566 33.75L206.845 23H212.361H217.877L226.057 36.595ZM309.014 43.75C314.103 55.163 318.896 65.983 319.665 67.794L321 70.5H314H306.782L299.961 53.5C293.395 37.138 293.574 36.113 292.5 39C291.886 40.65 288.341 48.8 285.204 56.5L279.5 70.5H272.793C269 70.5 266.5 70.5 266 70.5C266.5 70 286 24.5 286.5 23C287 23 289.963 23 293.439 23H299.761L309.014 43.75ZM406 28.5V34H398.5H391V52.5V71H384.5H378V52.5V34H370.5H363V29.167C363 26.508 363 23.577 363 23C363.5 23 373.708 23 385.167 23H406V28.5ZM448.5 28.5V34.044H430.055H411V28.5V22.956H430.055H448.5V28.5ZM489.941 26.054C495.971 29.42 498.239 32.836 498.78 39.366C499.144 43.754 498.785 45.611 496.932 48.907C495.667 51.158 494.421 52.6518 494 53C493.434 53.468 492.5 54 492 54.5C491.944 54.5559 490.053 56.073 493.297 60.658C495.182 63.321 497.513 66.737 498.477 68.25L500.23 71H493.121H486.013L481.756 64.521C477.782 58.47 477.252 58.04 473.75 58.021L470 58V64.546V71.091L463.5 71L456 71.091C456 71.091 456 64 456 59.5C456 55 456.045 52.491 455.934 48L467.717 47.985C480.829 47.969 483 47.022 485.289 42.646C485.5 40 485.5 39.5 484.263 37.146C482 34.5 481.917 34.485 469.396 34H456V29.5C456 26.4448 456 24 456 23C458 23 462 23 471.5 23C485 23 486.003 23.855 489.941 26.054ZM262 56.5V71H256H250V66.863C250 63.698 251.348 60.292 255.741 52.363C258.898 46.663 261.857 42 262 42C262 42 262 48.525 262 56.5ZM449.11 47.022L449 52L430.055 52.044H411V47.022V42H430.055H449.11V47.022ZM214.812 56.123C217.558 61.122 219 64.995 219 67.373V71H213H207L207.004 56.75C207.002 48.7229 206.841 43.5 206.845 42C206.849 40.5 210.487 48.2503 214.812 56.123ZM448.5 65.5V71.044H429.75H411V65.5V59.956H429.75L448.5 60V65.5Z"
        fill="#4f46e5" />
</svg>