<svg width="175" height="30" viewBox="0 0 175 30" fill="none" xmlns="http://www.w3.org/2000/svg">
<g clip-path="url(#clip0_1_2)">
<rect width="175" height="30" rx="4" fill="#4F46E5"/>
<path fill-rule="evenodd" clip-rule="evenodd" d="M0 15V30H87.5044H175.009V15V0H87.5044H0V15ZM48.2909 8.66365L49.8792 9.23329L49.3359 10.7047C48.5817 12.7493 48.5216 12.786 46.8899 12.1832C44.2078 11.1928 41.476 11.6344 41.476 13.0588C41.476 13.9394 42.0881 14.2482 45.2888 14.9827C48.4876 15.7165 50.0734 16.9616 50.4021 18.9974C51.0237 22.8484 47.2756 25.8289 42.5362 25.2522C40.252 24.9741 37.1993 24.1136 36.94 23.6742C36.8371 23.5002 37.2249 22.6168 37.5982 21.7059C38.1418 20.3785 38.2268 20.0965 38.6972 20.3051C40.9693 21.3134 42.1603 21.5799 43.7832 21.4422C45.5579 21.2919 46.29 20.7819 45.973 19.9172C45.7787 19.3874 44.6549 18.8922 42.1042 18.2128C38.3282 17.2069 37.0924 16.0429 37.0924 13.4922C37.0924 11.6576 37.7632 10.1845 39.0273 9.24212C41.0353 7.74565 45.0345 7.49577 48.2909 8.66365ZM118.816 8.32129C119.956 8.62765 121.019 9.01129 121.18 9.174C121.493 9.49271 120.458 12.7059 120.04 12.7059C119.902 12.7059 119.245 12.4676 118.579 12.1765C117.128 11.5415 114.27 11.4794 113.705 12.0706C113.116 12.6868 113.21 13.6899 113.891 14.0658C114.215 14.2451 115.391 14.5867 116.504 14.8249C118.94 15.3466 120.824 16.2981 121.539 17.3679C122.279 18.4729 122.21 21.1045 121.405 22.4859C120.35 24.2975 118.312 25.2025 115.324 25.1866C112.765 25.1732 109.138 24.3071 108.727 23.6118C108.555 23.3202 109.042 21.7214 109.762 20.2144C109.783 20.1702 110.589 20.4484 111.554 20.832C114.348 21.9431 117.684 21.648 117.684 20.2899C117.684 19.5176 116.429 18.8545 113.661 18.1645C111.81 17.7028 110.841 17.2384 109.952 16.3853C108.879 15.3565 108.748 15.0385 108.748 13.4647C108.748 9.09106 113.206 6.81388 118.816 8.32129ZM18.8834 10.0588V12H16.523H14.1625V18.5456V24.8824C13.3195 24.8824 12.8137 24.8824 11.9707 24.8824H9.61027L9.51825 18.4412L9.42653 12H7.07352H4.72086V10.0588V8.11765H11.8021H18.8834V10.0588ZM32.9347 16.4118C34.8291 20.8765 36.2494 24.8824 36.418 25.0588C36.2494 25.0588 35.3834 25.0588 34.119 25.0588H31.8202L29.5279 19.0408C28.2672 15.7309 27.1915 13.0705 27.1374 13.1291C27.0832 13.1873 26.023 15.8954 24.7811 19.1471L22.5231 25.0588H20.2018H17.8802L18.7384 23.0294C19.2105 21.9131 20.8207 18.0946 22.3161 14.5436L25.036 8.08729L27.3135 8.11765H29.6739L32.9347 16.4118ZM56.9719 9.26471C56.9594 10.1732 56.5046 10.9253 54.7828 12.8824L52.6095 15.3529L52.6069 11.7353L52.6038 8.11765H54.7956H56.9874L56.9719 9.26471ZM67.4151 9.08047C66.9656 9.61024 65.4974 11.2916 64.1524 12.8167L61.7069 15.5898L64.85 19.8829C66.5785 22.2445 68.1462 24.8164 68.2837 25.0588C68.1151 25.0588 67.8912 25.0588 65.946 25.0588H63.3993L61.1539 22.0588C59.9191 20.4088 58.7908 19.0588 58.6469 19.0588C58.5028 19.0588 58.0706 19.4774 57.6864 19.9888C57.1598 20.6894 56.9874 21.4288 56.9874 22.9888V25.0588H54.7956H52.6038V22.6242V20.1896L57.9148 14.1755L63.2257 8.16141L65.7291 8.13953L68.2328 8.11765L67.4151 9.08047ZM76.2273 12.9159C78.4727 16.8215 79.0635 17.6259 79.4027 17.2394C79.632 16.9782 80.9084 14.8189 82.2389 12.4412L84.6583 8.11765H86.3343C87.2562 8.11765 88.0102 8.11765 88.0102 8.11765C87.8416 8.47059 85.1999 14.1236 82.4976 18.9706C80.2592 22.9856 80.0148 23.2941 79.071 23.2941C78.1416 23.2941 77.8643 22.9694 75.8311 19.5C74.608 17.4131 72.7393 13.9987 71.678 11.9118L69.7489 8.11765H71.6089H73.469L76.2273 12.9159ZM104.201 15.4412C105.917 19.4693 107.533 23.2881 107.792 23.9273L108.242 24.8824H105.882H103.448L101.148 18.8824C98.9335 13.1075 98.9947 12.7458 98.6322 13.7647C98.4247 14.3471 97.2293 17.2235 96.1716 19.9412L94.2484 24.8824H91.9868C90.7078 24.8824 89.8648 24.8824 89.6962 24.8824C89.8648 24.7059 96.4403 8.64706 96.6086 8.11765C96.7779 8.11765 97.7763 8.11765 98.9488 8.11765H101.08L104.201 15.4412ZM136.905 10.0588V12H134.376H131.847V18.5294V25.0588H129.655H127.463V18.5294V12H124.934H122.405V10.2942C122.405 9.35576 122.405 8.32129 122.405 8.11765C122.574 8.11765 126.016 8.11765 129.879 8.11765H136.905V10.0588ZM151.236 10.0588V12.0155H145.016H138.591V10.0588V8.10212H145.016H151.236V10.0588ZM165.21 9.19553C167.243 10.3835 168.008 11.5892 168.19 13.8939C168.313 15.4426 168.192 16.098 167.568 17.2613C167.141 18.0558 166.72 18.583 166.579 18.7059C166.387 18.8711 166.073 19.0588 165.904 19.2353C165.885 19.255 165.247 19.7905 166.341 21.4087C166.977 22.3486 167.764 23.5542 168.089 24.0882L168.68 25.0588H166.282H163.886L162.45 22.7721C161.109 20.6365 160.932 20.4847 159.75 20.478L158.486 20.4706V22.7809V25.0909L156.294 25.0588L153.765 25.0909C153.765 25.0909 153.765 22.5882 153.765 21C153.765 19.4118 153.78 18.5262 153.743 16.9412L157.716 16.9359C162.137 16.9302 162.869 16.596 163.641 15.0515C163.713 14.1176 163.713 13.9412 163.296 13.1104C162.532 12.1765 162.504 12.1712 158.282 12H153.765V10.4118C153.765 9.33346 153.765 8.47059 153.765 8.11765C154.439 8.11765 155.788 8.11765 158.991 8.11765C163.544 8.11765 163.882 8.41941 165.21 9.19553ZM88.3474 19.9412V25.0588H86.3242H84.3009V23.5987C84.3009 22.4816 84.7555 21.2795 86.2368 18.4811C87.3013 16.4693 88.2992 14.8235 88.3474 14.8235C88.3474 14.8235 88.3474 17.1265 88.3474 19.9412ZM151.442 16.596L151.405 18.3529L145.016 18.3685H138.591V16.596V14.8235H145.016H151.442V16.596ZM72.4354 19.8081C73.3614 21.5725 73.8477 22.9394 73.8477 23.7787V25.0588H71.8243H69.8011L69.8026 20.0294C69.8018 17.1963 69.7476 15.3529 69.7489 14.8235C69.7503 14.2941 70.977 17.0295 72.4354 19.8081ZM151.236 23.1176V25.0744H144.913H138.591V23.1176V21.1609H144.913L151.236 21.1765V23.1176Z" fill="white"/>
</g>
<defs>
<clipPath id="clip0_1_2">
<rect width="175.009" height="30" rx="4" fill="white"/>
</clipPath>
</defs>
</svg>
