<svg xmlns="http://www.w3.org/2000/svg" viewBox="0 0 297.17 220.97">
    <defs>
        <style>
            .cls-1 {
                fill: #4f46e5;
            }
        </style>
    </defs>
    <g id="Слой_2" data-name="Слой 2">
        <g id="Слой_1-2" data-name="Слой 1">
            <path class="cls-1"
                d="M56.54,48.88c1,.46,1.72.79,2.44,1.14,4.17,2.06,5.68,5.46,4.72,9.9s-4.09,5.85-8.35,6.39c-6.36.8-13,1.25-18.88,3.56-12.82,5.07-19.72,18.51-18.88,34.32.7,13,10.05,25.2,22.42,29,2.55.79,5.35.78,8.73,1.24-.57-3.29-1.08-5.51-1.3-7.76-.51-5.22,1.77-8.75,6.26-10,4.07-1.12,7.95,1.41,10.12,6,3.1,6.55,5.52,13.75,10,19.26,10.9,13.48,26.08,13.65,41.57,10.91,9.57-1.69,17.52-6.94,25.26-12.49C151,133,161.86,126.76,174.09,123c5.71-1.74,10.26.08,12.13,5.23,1.62,4.47-1,9.29-6.63,11.05-12.26,3.81-22.92,10.43-33.1,18a19.08,19.08,0,0,0-1.9,1.57c-.22.21-.24.6-.77,2.06,3.65,1.41,7.25,3.29,11.08,4.17,15.54,3.6,30.63,3.62,44.36-6.33,4.38-3.17,9.68-2.17,12.4,1.72s2,8.67-2.25,11.92c-3.77,2.89-8,5.21-12.17,7.9,5.12,10.33,12.31,18.42,21,25.39,2,1.57,4.4,4.06,4.4,6.13,0,2.91-1.37,7.48-3.41,8.33-3,1.25-7.87,1.06-10.52-.69a74.31,74.31,0,0,1-25.38-28.92c-2.43-4.81-5.2-6.66-10.71-6.42-16.58.72-31.88-3.41-45.41-13.49a9.27,9.27,0,0,0-6.41-1.19c-10.54,1.74-21,3.05-31.67.7a50.3,50.3,0,0,1-26.52-14.88c-2.72-2.92-5.38-3.7-9.14-3.53-24.14,1-42.78-11.77-50.73-34.62C-5.83,92.63,6.5,64,30.27,53.71A12.91,12.91,0,0,0,37.82,46c8.71-21.72,35.9-35.16,58.43-29,2.71.75,4.79,1,7.24-1.21,20.28-18,49-20.91,72.19-7.11,3.67,2.19,6.44,2.13,10.11.55C212-2,240.87,11.89,248.94,39.24a8,8,0,0,0,4.84,4.62c19.08,4.9,32.28,16.41,39.73,34.58,12.14,29.64-7.21,66.53-38.41,73-4.26.88-6.39,2.81-5.75,7,2,12.95,3.89,25.91,6.33,38.77,1.16,6.06-.3,10.78-5.13,12.21-5.17,1.54-9.47-1.12-11.27-7A144.29,144.29,0,0,1,233,146.76c.65-7.35,3.61-10.42,10.9-10.91,20.5-1.38,36.12-17.91,36-38.09-.1-20-15.56-36.31-35.85-37.83-8-.6-10.37-3.18-11.11-12.19C231.8,33.29,217.7,21.47,202.8,22.43c-15.9,1-28.53,13.83-27.42,28.48.35,4.49,3.08,8.75,3.81,13.26.49,3,.34,7-1.33,9.09-1.52,1.91-5.65,2.85-8.32,2.39-2.26-.39-4.68-3.05-5.95-5.32-1.82-3.24-3.22-5.13-7.2-3a21.89,21.89,0,0,1-7.21,1.85c-5.05.72-9.24-2.26-10-6.82-.83-5.22,1.77-9.3,7.11-10.17C154,51,159,47.74,159.71,39c.31-3.92,2.67-7.84,4.71-11.41s1.15-5.13-2.42-6.69a44,44,0,0,0-50.78,11.73c-4.86,5.77-7.55,6.47-14.2,2.89C85.22,29.15,61.87,35.37,56.54,48.88Z" />
            <path class="cls-1"
                d="M127.74,103.86c-3.61-1.07-5.85.17-6.09,5-.2,4-3.18,6.21-6.91,6.72a7.86,7.86,0,0,1-9-5.6c-3.1-9.82-9.88-16.32-18-21.81-4.57-3.08-6-8.22-3.4-12.42s7.33-5.27,12.19-2,8.92,7.37,13.63,10.71A14.4,14.4,0,0,0,117,86.67c4.59.39,9.3-.31,13.81.39,6.77,1,9.48,4.79,8.63,10.42C138.7,102.41,135.15,104.48,127.74,103.86Z" />
            <path class="cls-1"
                d="M233.85,106.14c-9.77-1.3-19.55-5.74-25.57-16.36-2.38-4.2-1.25-9,2.48-11.41s9.13-1.78,11.56,2c3.66,5.71,9,8,15.26,9.11,5.71,1,8.28,4.34,7.72,9.6C244.8,103.88,241.44,106.35,233.85,106.14Z" />
        </g>
    </g>
</svg>